<svg width="107" height="95" viewBox="0 0 107 95" fill="none" xmlns="http://www.w3.org/2000/svg">
<circle cx="55" cy="55" r="40" fill="#FF6C99"/>
<path d="M12.7411 44.2369C12.6133 45.0914 12.357 45.8674 11.9722 46.5648C11.5785 47.25 11.0829 47.823 10.4855 48.2837C9.88807 48.7444 9.21836 49.0756 8.47634 49.2773C7.73589 49.4685 6.94897 49.5018 6.11558 49.3771C5.28219 49.2524 4.53947 48.9903 3.88741 48.5907C3.23694 48.1806 2.69349 47.6679 2.25707 47.0526C1.82224 46.4267 1.52213 45.7292 1.35676 44.9603C1.18084 44.1898 1.15759 43.372 1.28701 42.507C1.43065 41.547 1.72886 40.7072 2.18166 39.9876C2.62548 39.2559 3.20861 38.6745 3.93103 38.2433L5.20389 40.1163C4.71455 40.4313 4.32967 40.8051 4.04923 41.2377C3.75825 41.6688 3.57172 42.1586 3.48965 42.7071C3.41231 43.224 3.42567 43.7114 3.52975 44.1691C3.63382 44.6269 3.82042 45.0377 4.08955 45.4015C4.35868 45.7654 4.69608 46.0693 5.10177 46.3134C5.50904 46.5469 5.9764 46.7031 6.50386 46.782C7.03132 46.8609 7.52394 46.8483 7.98171 46.7443C8.44107 46.6296 8.85266 46.4378 9.21648 46.1686C9.58031 45.8995 9.87898 45.5613 10.1125 45.154C10.346 44.7468 10.5014 44.2847 10.5787 43.7678C10.6608 43.2192 10.6311 42.6971 10.4895 42.2013C10.3375 41.704 10.0683 41.2323 9.68205 40.7863L11.4474 39.3679C12.0119 39.9916 12.4046 40.7191 12.6254 41.5502C12.8478 42.3708 12.8863 43.2664 12.7411 44.2369Z" fill="#FF6C99"/>
<path d="M16.5336 32.5532C16.1241 33.3741 15.5881 34.0186 14.9255 34.4867C14.2676 34.9453 13.55 35.2131 12.7725 35.2902C11.9902 35.353 11.2173 35.1939 10.4537 34.813C9.68052 34.4274 9.0885 33.9056 8.67762 33.2477C8.26195 32.5755 8.04419 31.8411 8.02433 31.0445C7.9997 30.2336 8.1921 29.4177 8.60155 28.5968C9.00623 27.7854 9.53988 27.1457 10.2025 26.6776C10.8556 26.2047 11.5685 25.9345 12.3412 25.8669C13.1139 25.7994 13.8916 25.9608 14.6743 26.3512C15.4379 26.7321 16.03 27.2539 16.4504 27.9166C16.8613 28.5745 17.079 29.3089 17.1037 30.1198C17.1283 30.9307 16.9383 31.7418 16.5336 32.5532ZM14.7009 31.6391C14.8866 31.2668 14.9673 30.8899 14.9431 30.5083C14.9189 30.1267 14.7921 29.7714 14.5628 29.4425C14.324 29.1088 13.985 28.8325 13.546 28.6134C13.0973 28.3897 12.6727 28.2851 12.272 28.2998C11.8713 28.3145 11.5113 28.427 11.1918 28.6372C10.8724 28.8474 10.6199 29.1386 10.4342 29.5109C10.2485 29.8832 10.1678 30.2601 10.192 30.6417C10.2163 31.0233 10.3406 31.3833 10.5652 31.7218C10.7945 32.0507 11.1334 32.3271 11.582 32.5508C12.0211 32.7698 12.4458 32.8744 12.856 32.8644C13.2615 32.8402 13.6239 32.723 13.9433 32.5128C14.2627 32.3026 14.5152 32.0113 14.7009 31.6391Z" fill="#FF6C99"/>
<path d="M18.5442 14.8942C19.0227 14.4074 19.5479 14.071 20.1195 13.8851C20.691 13.6841 21.2868 13.6714 21.9068 13.8471C22.5192 14.0154 23.1373 14.4061 23.7611 15.0192L27.2754 18.4739L25.5256 20.2539L22.2851 17.0684C21.7907 16.5824 21.3171 16.3337 20.8645 16.3225C20.4193 16.3037 20.0023 16.4921 19.6135 16.8876C19.3368 17.1691 19.1471 17.4837 19.0445 17.8316C18.9418 18.1643 18.9485 18.515 19.0648 18.8836C19.1886 19.2446 19.4407 19.6121 19.821 19.9859L22.8561 22.9695L21.1064 24.7495L14.9677 18.7151L16.6389 17.0149L18.339 18.6862L17.5115 18.5009C17.3176 17.8765 17.3123 17.2505 17.4954 16.6229C17.6786 15.9953 18.0282 15.4191 18.5442 14.8942Z" fill="#FF6C99"/>
<path d="M34.9803 13.7927C34.1665 14.2162 33.354 14.4225 32.5428 14.4118C31.741 14.3961 31.003 14.1909 30.3287 13.7963C29.6589 13.3873 29.1271 12.8043 28.7332 12.0473C28.3344 11.2809 28.1621 10.5108 28.2164 9.73699C28.2752 8.94884 28.5307 8.22669 28.9829 7.57055C29.4396 6.90001 30.0749 6.35303 30.8886 5.92958C31.6929 5.51106 32.5007 5.30718 33.3119 5.31793C34.1182 5.31921 34.8538 5.51963 35.5186 5.91919C36.1834 6.31875 36.7177 6.90648 37.1215 7.68238C37.5154 8.43937 37.6876 9.20947 37.6383 9.99269C37.584 10.7665 37.3285 11.4886 36.8718 12.1591C36.4151 12.8297 35.7845 13.3742 34.9803 13.7927ZM34.0349 11.976C34.4039 11.7839 34.6908 11.5264 34.8955 11.2035C35.1002 10.8805 35.2065 10.5186 35.2143 10.1177C35.2172 9.70738 35.1054 9.28458 34.8789 8.84932C34.6475 8.40459 34.3654 8.07041 34.0326 7.84679C33.6998 7.62316 33.3424 7.50251 32.9605 7.48482C32.5785 7.46714 32.203 7.55431 31.834 7.74634C31.4649 7.93836 31.1781 8.19585 30.9734 8.51881C30.7687 8.84177 30.6577 9.20615 30.6404 9.61196C30.6325 10.0128 30.7443 10.4356 30.9757 10.8804C31.2022 11.3156 31.4843 11.6498 31.8221 11.8829C32.1643 12.1016 32.5265 12.2198 32.9084 12.2375C33.2904 12.2552 33.6659 12.168 34.0349 11.976Z" fill="#FF6C99"/>
<path d="M48.184 9.47471C47.2687 9.62772 46.4226 9.57991 45.6456 9.33129C44.8669 9.07214 44.217 8.64546 43.6958 8.05125C43.1853 7.45528 42.8596 6.73647 42.7189 5.89482C42.5764 5.04264 42.6506 4.257 42.9413 3.53788C43.2408 2.80649 43.7175 2.19688 44.3714 1.70906C45.0234 1.21072 45.8071 0.885043 46.7224 0.732029C47.6167 0.582533 48.4269 0.641755 49.153 0.909696C49.8774 1.16712 50.4554 1.61663 50.8871 2.25823L49.1491 3.60321C48.8613 3.24036 48.5333 2.99239 48.1649 2.8593C47.8071 2.72445 47.4336 2.68956 47.0443 2.75464C46.6235 2.82499 46.2606 2.98299 45.9556 3.22864C45.6506 3.47429 45.4272 3.78742 45.2853 4.16802C45.154 4.54686 45.1296 4.98352 45.2123 5.47799C45.295 5.97246 45.46 6.37746 45.7074 6.69298C45.9653 7.00675 46.2785 7.23017 46.6468 7.36326C47.0151 7.49636 47.4097 7.52773 47.8305 7.45737C48.2198 7.3923 48.5625 7.24308 48.8588 7.0097C49.1638 6.76405 49.3924 6.4176 49.5448 5.97036L51.6284 6.69269C51.4271 7.4293 51.0267 8.04237 50.4272 8.53192C49.826 9.01095 49.0782 9.32521 48.184 9.47471Z" fill="#FF6C99"/>
<path d="M61.518 9.54606C60.5475 9.40086 59.7214 9.08312 59.0398 8.59286C58.3687 8.10418 57.8816 7.50283 57.5786 6.7888C57.2772 6.06422 57.1896 5.27996 57.3159 4.43602C57.4437 3.58153 57.7517 2.85646 58.2399 2.2608C58.7402 1.65618 59.3609 1.22055 60.1018 0.953921C60.8443 0.676743 61.6481 0.602867 62.5131 0.732293C63.3465 0.856984 64.0687 1.14838 64.6796 1.6065C65.3027 2.05564 65.7597 2.64171 66.0506 3.36471C66.343 4.07716 66.4206 4.89228 66.2833 5.81007C66.2691 5.90501 66.2472 6.01499 66.2177 6.14C66.1898 6.25446 66.1627 6.36365 66.1364 6.46756L59.2213 5.43295L59.4368 3.99297L65.0543 4.83345L64.0409 5.11865C64.1072 4.67558 64.0751 4.27711 63.9447 3.92325C63.8143 3.5694 63.6043 3.27912 63.3146 3.05243C63.0266 2.8152 62.6716 2.66501 62.2496 2.60188C61.8276 2.53874 61.4389 2.57765 61.0835 2.71861C60.7402 2.8506 60.4536 3.07196 60.2237 3.3827C59.9955 3.6829 59.8474 4.0598 59.7795 4.51342L59.7227 4.89319C59.6533 5.35736 59.6919 5.78378 59.8387 6.17244C59.9976 6.55213 60.2475 6.86454 60.5883 7.10967C60.9412 7.34583 61.3709 7.50179 61.8772 7.57755C62.3308 7.64542 62.7367 7.63604 63.0948 7.54941C63.4634 7.46435 63.8107 7.30599 64.1366 7.07433L65.2369 8.69499C64.7803 9.07965 64.2384 9.34911 63.6114 9.50335C62.9859 9.64705 62.2881 9.66129 61.518 9.54606Z" fill="#FF6C99"/>
<path d="M93.5411 17.6898C94.0279 18.1683 94.3605 18.6897 94.5388 19.2539C94.7322 19.8179 94.7372 20.4062 94.5539 21.0188C94.3857 21.6312 93.995 22.2492 93.3818 22.873L89.9271 26.3873L88.1472 24.6376L91.3326 21.3971C91.8187 20.9026 92.0749 20.4366 92.1013 19.9989C92.1277 19.5612 91.9546 19.1591 91.5819 18.7927C91.3232 18.5385 91.0314 18.3712 90.7064 18.2911C90.3888 18.2033 90.0571 18.2212 89.7112 18.3448C89.3653 18.4685 89.0129 18.7129 88.6539 19.078L85.6255 22.1587L83.8455 20.409L87.031 17.1685C87.517 16.674 87.7733 16.208 87.7997 15.7703C87.8337 15.34 87.6644 14.9417 87.2916 14.5753C87.033 14.3211 86.7412 14.1539 86.4162 14.0737C86.0986 13.9859 85.7669 14.0038 85.421 14.1275C85.0751 14.2511 84.7226 14.4955 84.3637 14.8606L81.3353 17.9414L79.5553 16.1916L85.5897 10.0529L87.2899 11.7242L85.641 13.4015L85.8039 12.5968C86.4281 12.3878 87.0389 12.3675 87.6362 12.5358C88.2486 12.7041 88.8059 13.035 89.3079 13.5285C89.8708 14.0818 90.2194 14.7087 90.3536 15.409C90.5029 16.1092 90.3581 16.8194 89.9193 17.5398L89.46 16.7517C90.1364 16.4744 90.8374 16.4156 91.5629 16.5753C92.2959 16.7425 92.9553 17.114 93.5411 17.6898Z" fill="#FF6C99"/>
<path d="M93.2958 33.3734L94.7861 32.5979L95.0387 32.2861L97.707 30.8976C98.1801 30.6514 98.4728 30.3128 98.5851 29.8816C98.7024 29.4598 98.6059 28.9509 98.2957 28.3548C98.084 27.9479 97.8085 27.5802 97.4692 27.2517C97.1443 26.9278 96.8017 26.6852 96.4413 26.5241L97.5747 24.9242C98.0847 25.1879 98.5728 25.5713 99.0389 26.0742C99.505 26.5772 99.8957 27.1314 100.211 27.737C100.816 28.9009 101.012 29.9473 100.798 30.8763C100.584 31.8053 99.8953 32.5727 98.7314 33.1783L94.3741 35.4457L93.2958 33.3734ZM91.971 31.1048C91.6608 30.5087 91.4942 29.946 91.4714 29.4168C91.458 28.8827 91.5672 28.411 91.7992 28.0017C92.0311 27.5924 92.3647 27.2746 92.8 27.0481C93.2542 26.8117 93.7082 26.7137 94.1621 26.7541C94.6209 26.804 95.0705 27.0209 95.5108 27.405C95.9607 27.7842 96.3874 28.3618 96.7912 29.1377L97.8473 31.1673L96.5557 31.8394L95.6252 30.051C95.3543 29.5306 95.0821 29.2154 94.8084 29.1053C94.5396 29.0047 94.2774 29.0208 94.0219 29.1538C93.7381 29.3015 93.5676 29.5285 93.5105 29.8347C93.4678 30.1455 93.5474 30.4949 93.7493 30.8829C93.9413 31.2519 94.1988 31.5387 94.5218 31.7434C94.8542 31.9432 95.2252 32.0207 95.6348 31.9759L94.7901 32.8483C94.2144 32.9435 93.688 32.8447 93.2109 32.5518C92.7339 32.259 92.3206 31.7766 91.971 31.1048ZM100.523 26.222L103.564 27.0746L104.804 29.4591L101.424 27.9536L100.523 26.222Z" fill="#FF6C99"/>
<path d="M96.6178 44.5614C96.4964 43.8355 96.4636 43.1218 96.5194 42.4203C96.5874 41.7276 96.7204 41.1646 96.9184 40.7314L98.823 41.2565C98.6461 41.6862 98.5228 42.1773 98.4529 42.7297C98.3953 43.2909 98.4096 43.8292 98.4958 44.3448C98.5907 44.9129 98.726 45.3012 98.9014 45.5098C99.0786 45.7289 99.2882 45.8183 99.5302 45.7778C99.7301 45.7444 99.8616 45.6251 99.9246 45.4199C99.9999 45.2234 100.038 44.9683 100.04 44.6544C100.042 44.3405 100.038 43.995 100.029 43.618C100.022 43.2515 100.029 42.8771 100.052 42.4948C100.085 42.1108 100.166 41.7513 100.294 41.4163C100.421 41.0813 100.622 40.7936 100.895 40.5532C101.171 40.3233 101.55 40.168 102.034 40.0871C102.571 39.9974 103.07 40.0708 103.531 40.3073C103.994 40.5543 104.391 40.953 104.72 41.5035C105.061 42.0522 105.3 42.7369 105.437 43.5575C105.534 44.1361 105.569 44.7358 105.543 45.3566C105.517 45.9774 105.416 46.5079 105.241 46.9481L103.352 46.4204C103.526 45.9696 103.619 45.5268 103.633 45.0919C103.659 44.6657 103.64 44.258 103.575 43.8688C103.483 43.3217 103.343 42.9342 103.153 42.7064C102.964 42.4785 102.753 42.3839 102.522 42.4226C102.312 42.4578 102.169 42.5736 102.093 42.77C102.02 42.977 101.977 43.2383 101.965 43.5539C101.953 43.8696 101.95 44.2107 101.957 44.5772C101.977 44.9524 101.97 45.3321 101.937 45.7161C101.904 46.1002 101.822 46.4544 101.693 46.7789C101.576 47.1122 101.38 47.399 101.107 47.6393C100.844 47.878 100.47 48.0377 99.9864 48.1186C99.4604 48.2066 98.9658 48.127 98.5028 47.88C98.0502 47.6312 97.6581 47.2263 97.3264 46.6653C96.9964 46.1149 96.7602 45.4136 96.6178 44.5614Z" fill="#FF6C99"/>
</svg>
