<svg width="252" height="1018" viewBox="0 0 252 1018" fill="none" xmlns="http://www.w3.org/2000/svg">
<path d="M116.976 96.9972C119.306 98.8156 121.65 100.702 123.938 102.618C124.449 103.054 124.605 103.811 124.246 104.317C123.916 104.807 123.225 104.865 122.71 104.464C122.71 104.464 122.685 104.443 122.672 104.433C120.384 102.517 118.037 100.667 115.735 98.8332C112.968 96.6733 110.122 94.5457 107.283 92.4984C106.753 92.1216 106.543 91.3596 106.85 90.8142C107.149 90.2813 107.838 90.165 108.395 90.562C111.293 92.637 114.152 94.7746 116.989 97.0073L116.976 96.9972ZM133.775 111.23C133.775 111.23 133.826 111.27 133.865 111.3C138.685 115.716 143.448 120.405 148.04 125.241C148.512 125.741 148.551 126.5 148.156 126.94C147.741 127.382 147.03 127.351 146.558 126.851C142.022 122.078 137.29 117.431 132.53 113.043C132.034 112.581 131.92 111.819 132.296 111.347C132.657 110.899 133.299 110.858 133.801 111.25L133.775 111.23ZM97.7174 83.2757C98.2065 83.6574 98.4015 84.3517 98.144 84.8797C97.8706 85.4326 97.1912 85.594 96.6317 85.2322C91.2509 81.7618 85.6919 78.4514 80.117 75.4089C79.5337 75.0845 79.2457 74.355 79.4725 73.7843C79.7074 73.2012 80.3639 72.9847 80.9472 73.309C86.5816 76.3792 92.2 79.7174 97.6322 83.2279C97.658 83.248 97.6966 83.2782 97.7223 83.2983L97.7174 83.2757ZM156.781 134.886C156.845 134.936 156.922 134.996 156.971 135.071C161.292 140.032 165.537 145.234 169.608 150.56C170.027 151.112 169.986 151.846 169.527 152.236C169.056 152.615 168.354 152.479 167.926 151.939C163.891 146.678 159.684 141.507 155.407 136.599C154.963 136.084 154.946 135.323 155.378 134.913C155.759 134.555 156.348 134.567 156.786 134.908L156.781 134.886ZM69.7468 67.5771C70.1845 67.9187 70.4012 68.5178 70.2268 69.0359C70.0257 69.6267 69.379 69.8883 68.7928 69.5991C63.1366 66.867 57.2992 64.33 51.4617 62.0359C50.8438 61.7966 50.4775 61.0995 50.64 60.4787C50.7817 59.8603 51.4057 59.5435 52.0157 59.7953C57.9125 62.117 63.8094 64.6817 69.525 67.4414C69.6102 67.4892 69.6953 67.5369 69.7597 67.5871L69.7468 67.5771ZM177.223 161.009C177.326 161.089 177.421 161.182 177.514 161.31C181.306 166.68 185.022 172.292 188.587 177.99C188.95 178.572 188.833 179.303 188.326 179.618C187.819 179.932 187.11 179.715 186.747 179.133C183.213 173.478 179.527 167.909 175.765 162.581C175.374 162.014 175.437 161.278 175.926 160.931C176.313 160.654 176.837 160.707 177.236 161.019L177.223 161.009ZM40.515 55.6607C40.9011 55.9621 41.1239 56.4911 41.0277 56.9769C40.9118 57.6153 40.3136 57.9523 39.6927 57.7481C33.8542 55.7897 27.8502 54.0012 21.8671 52.4532C21.2561 52.2941 20.8036 51.642 20.8731 50.9858C20.9553 50.3398 21.5229 49.9602 22.1418 50.1068C28.1923 51.6699 34.2507 53.4635 40.1486 55.4496C40.2883 55.5025 40.4199 55.5679 40.5229 55.6482L40.515 55.6607ZM195.104 189.02C195.245 189.13 195.358 189.256 195.46 189.429C198.732 195.104 201.95 201.017 205.024 207.005C205.329 207.617 205.152 208.32 204.602 208.582C204.072 208.842 203.369 208.555 203.043 207.945C200 202 196.792 196.132 193.551 190.499C193.204 189.892 193.347 189.181 193.88 188.887C194.261 188.68 194.736 188.751 195.096 189.032L195.104 189.02ZM10.5695 47.5427C10.9171 47.814 11.1329 48.2628 11.115 48.7161C11.0664 49.3698 10.5295 49.792 9.90274 49.6579C3.968 48.4282 -2.10631 47.3885 -8.152 46.5769C-8.78974 46.4904 -9.28676 45.8782 -9.27971 45.2294C-9.28556 44.5706 -8.77941 44.1058 -8.14167 44.1923C-2.06234 45.0115 4.06646 46.0563 10.0685 47.3012C10.2576 47.3367 10.4279 47.4322 10.5824 47.5528L10.5695 47.5427ZM210.518 218.434C210.686 218.564 210.829 218.732 210.928 218.94C213.741 224.855 216.481 230.975 219.093 237.145C219.362 237.784 219.113 238.45 218.552 238.667C217.979 238.873 217.315 238.524 217.039 237.897C214.445 231.76 211.714 225.685 208.933 219.813C208.636 219.189 208.846 218.493 209.401 218.253C209.772 218.094 210.196 218.182 210.531 218.444L210.518 218.434ZM-19.6468 43.1012C-19.3379 43.3423 -19.124 43.7335 -19.1103 44.1368C-19.0836 44.7931 -19.572 45.2906 -20.1919 45.2367C-26.1653 44.7057 -32.2318 44.3824 -38.1993 44.2673C-38.8223 44.2484 -39.3797 43.7012 -39.4479 43.0498C-39.5082 42.3859 -39.0586 41.8583 -38.4486 41.8672C-32.4186 41.9749 -26.3055 42.3158 -20.2905 42.8419C-20.0519 42.8599 -19.8271 42.9606 -19.6468 43.1012ZM223.64 248.824C223.833 248.975 223.994 249.176 224.082 249.432C226.513 255.646 228.807 261.923 230.906 268.084C231.132 268.728 230.829 269.389 230.241 269.528C229.658 269.69 229.005 269.292 228.786 268.636C226.698 262.52 224.421 256.275 222.001 250.106C221.753 249.464 222.015 248.809 222.58 248.614C222.94 248.502 223.323 248.596 223.632 248.837L223.64 248.824ZM-49.735 42.1617C-49.4647 42.3727 -49.2657 42.6962 -49.2152 43.072C-49.1213 43.7435 -49.5452 44.2911 -50.1711 44.3074C-56.1001 44.4653 -62.0806 44.8261 -67.9462 45.3699C-68.5622 45.4312 -69.1593 44.9465 -69.2948 44.28C-69.4304 43.6134 -69.0451 43.0356 -68.4291 42.9743C-62.514 42.413 -56.4918 42.0474 -50.5084 41.8946C-50.2332 41.8851 -49.9668 41.9808 -49.7479 42.1516L-49.735 42.1617ZM234.49 279.947C234.709 280.118 234.88 280.364 234.973 280.642C236.914 286.961 238.703 293.367 240.297 299.657C240.461 300.309 240.106 300.929 239.508 301.023C238.91 301.117 238.276 300.66 238.112 300.008C236.529 293.763 234.749 287.402 232.826 281.116C232.628 280.457 232.949 279.829 233.537 279.689C233.873 279.615 234.214 279.713 234.498 279.934L234.49 279.947ZM-79.3514 44.6372C-79.1068 44.8281 -78.9306 45.0965 -78.8485 45.4223C-78.6921 46.0864 -79.0517 46.6843 -79.6627 46.7681C-85.5393 47.6025 -91.3584 48.6499 -96.9875 49.883C-97.5886 50.012 -98.2254 49.5899 -98.4233 48.9307C-98.6213 48.2715 -98.3003 47.6435 -97.6992 47.5145C-92.0285 46.2764 -86.1469 45.2216 -80.2288 44.3824C-79.9168 44.3455 -79.6088 44.4363 -79.3514 44.6372ZM242.794 311.625C243.039 311.816 243.228 312.095 243.302 312.433C244.7 318.851 245.92 325.336 246.951 331.693C247.053 332.352 246.642 332.909 246.021 332.948C245.408 332.974 244.819 332.477 244.712 331.796C243.703 325.494 242.485 319.066 241.098 312.694C240.954 312.04 241.335 311.439 241.938 311.368C242.25 311.331 242.55 311.434 242.794 311.625ZM-108.135 50.5661C-107.929 50.7269 -107.763 50.9501 -107.675 51.2058C-107.448 51.85 -107.744 52.4982 -108.327 52.6597C-109.676 53.0277 -110.999 53.4156 -112.301 53.8012C-115.237 54.6692 -118.131 55.625 -120.936 56.6511C-116.658 61.9527 -112.92 67.5613 -109.808 73.3365C-109.482 73.9459 -109.645 74.6593 -110.183 74.9312C-110.721 75.2032 -111.419 74.9387 -111.745 74.3293C-114.799 68.6746 -118.457 63.1839 -122.656 58.0001C-122.805 57.8095 -122.891 57.6114 -122.948 57.3983C-123.579 57.635 -124.218 57.8842 -124.836 58.1309C-125.397 58.3476 -126.076 58.0231 -126.36 57.4088C-126.636 56.782 -126.413 56.0962 -125.866 55.8694C-121.824 54.2572 -117.561 52.7807 -113.195 51.4773C-111.872 51.0893 -110.528 50.6989 -109.179 50.331C-108.836 50.244 -108.465 50.3275 -108.169 50.5585L-108.135 50.5661ZM-141.606 36.4442C-137.487 39.6589 -133.586 43.0962 -129.977 46.6605C-129.489 47.1349 -129.417 47.9016 -129.819 48.3542C-130.208 48.8168 -130.94 48.7877 -131.407 48.3108C-134.926 44.8167 -138.758 41.4522 -142.787 38.3077C-143.907 37.4337 -145.043 36.5848 -146.199 35.7382C-146.709 35.3589 -146.932 34.587 -146.633 34.0541C-146.321 33.5312 -145.632 33.4149 -145.088 33.8018C-143.906 34.6684 -142.744 35.5375 -141.599 36.4316L-141.606 36.4442ZM-155.86 26.6656C-155.384 27.0373 -155.186 27.6965 -155.423 28.222C-155.683 28.7851 -156.345 28.9791 -156.925 28.6197C-162.213 25.4275 -167.89 22.455 -173.778 19.785C-174.372 19.5082 -174.717 18.8087 -174.534 18.1854C-174.346 17.5846 -173.725 17.3029 -173.11 17.5771C-167.129 20.2823 -161.367 23.3027 -155.994 26.5426C-155.955 26.5727 -155.904 26.6129 -155.865 26.643L-155.86 26.6656ZM248.237 343.631C248.52 343.852 248.719 344.175 248.762 344.564C249.554 350.995 250.177 357.481 250.588 363.877C250.627 364.543 250.152 365.051 249.537 365.02C248.909 364.978 248.38 364.416 248.32 363.752C247.911 357.414 247.298 350.973 246.508 344.599C246.427 343.938 246.863 343.4 247.489 343.384C247.757 343.387 248.023 343.482 248.229 343.643L248.237 343.631ZM-184.535 12.9594C-184.136 13.2709 -183.921 13.8124 -184.025 14.3106C-184.167 14.929 -184.778 15.2559 -185.383 15.0267C-191.051 12.9208 -197.018 11.0122 -203.13 9.3638C-203.753 9.19468 -204.185 8.54003 -204.103 7.89393C-204.021 7.24788 -203.453 6.86828 -202.829 7.03741C-196.637 8.71103 -190.603 10.6349 -184.876 12.7684C-184.749 12.8112 -184.638 12.8791 -184.535 12.9594ZM-135.313 60.8518C-135.171 60.9623 -135.041 61.1204 -134.939 61.2934C-134.613 61.9028 -134.776 62.6163 -135.314 62.8882C-140.601 65.5849 -145.538 68.6104 -149.987 71.8674C-150.476 72.2146 -151.196 72.0452 -151.582 71.5008C-151.981 70.9464 -151.911 70.1977 -151.434 69.8404C-146.904 66.516 -141.881 63.4455 -136.508 60.704C-136.135 60.5094 -135.668 60.5931 -135.321 60.8643L-135.313 60.8518ZM-104.687 84.9595C-104.494 85.1102 -104.34 85.3234 -104.231 85.5767C-101.816 91.9665 -100.157 98.4575 -99.2947 104.869C-99.2136 105.531 -99.6375 106.078 -100.263 106.094C-100.876 106.121 -101.455 105.576 -101.549 104.904C-102.387 98.6982 -104.002 92.4103 -106.331 86.2185C-106.578 85.5768 -106.296 84.9186 -105.718 84.7344C-105.366 84.635 -104.983 84.7285 -104.687 84.9595ZM-214.418 4.34811C-214.071 4.61935 -213.842 5.07815 -213.881 5.53399C-213.929 6.1876 -214.479 6.5998 -215.093 6.47577C-220.903 5.23126 -226.961 4.16661 -233.134 3.31211C-233.764 3.21308 -234.269 2.61332 -234.262 1.96462C-234.255 1.31588 -233.74 0.838525 -233.123 0.927524C-226.905 1.79963 -220.792 2.86947 -214.927 4.11909C-214.738 4.15459 -214.568 4.25007 -214.426 4.36059L-214.418 4.34811ZM250.631 375.65C250.953 375.901 251.154 376.282 251.173 376.708C251.337 383.098 251.319 389.533 251.118 395.862C251.091 396.513 250.572 396.968 249.95 396.857C249.32 396.758 248.831 396.133 248.859 395.482C249.062 389.21 249.089 382.82 248.914 376.478C248.895 375.809 249.389 375.334 250.021 375.398C250.252 375.429 250.464 375.519 250.644 375.66L250.631 375.65ZM-99.1975 116.74C-98.8628 117.001 -98.6391 117.437 -98.6491 117.878C-98.9244 124.598 -100.147 130.84 -102.308 136.406C-102.53 136.999 -103.187 137.216 -103.77 136.891C-104.374 136.57 -104.649 135.85 -104.414 135.267C-102.355 129.921 -101.173 123.927 -100.914 117.475C-100.886 116.824 -100.354 116.379 -99.7322 116.491C-99.5302 116.536 -99.3441 116.607 -99.1767 116.737L-99.1975 116.74ZM-159.004 77.3542C-158.939 77.4044 -158.862 77.4647 -158.813 77.5399C-158.357 78.0644 -158.352 78.8158 -158.785 79.2257C-163.088 83.3447 -166.744 87.7807 -169.676 92.4084L-169.787 92.5835C-170.112 93.0963 -170.819 93.18 -171.347 92.7681C-171.875 92.3562 -172.043 91.5893 -171.718 91.0765L-171.607 90.9015C-168.596 86.1486 -164.826 81.5951 -160.411 77.3587C-160.03 77.0013 -159.441 77.0126 -159.004 77.3542ZM249.903 407.344C250.251 407.616 250.48 408.074 250.441 408.53C249.986 414.774 249.326 421.1 248.495 427.33C248.413 427.976 247.845 428.356 247.221 428.186C246.61 428.027 246.166 427.363 246.248 426.717C247.068 420.534 247.731 414.266 248.182 408.057C248.231 407.403 248.781 406.991 249.395 407.115C249.584 407.151 249.754 407.246 249.896 407.357L249.903 407.344ZM-108.545 145.278C-108.545 145.278 -108.493 145.318 -108.454 145.348C-107.958 145.81 -107.845 146.572 -108.221 147.044C-112.097 152.038 -116.886 155.59 -122.459 157.615C-123.033 157.822 -123.696 157.472 -123.972 156.845C-124.241 156.206 -123.992 155.54 -123.431 155.323C-118.205 153.421 -113.701 150.076 -110.057 145.387C-109.709 144.929 -109.047 144.886 -108.545 145.278ZM-175.467 101.609C-175.017 101.961 -174.816 102.585 -175.003 103.093C-177.215 109.105 -178.179 115.119 -177.863 120.936C-177.823 121.603 -178.299 122.11 -178.919 122.056C-179.546 122.015 -180.08 121.43 -180.115 120.786C-180.463 114.626 -179.452 108.294 -177.133 101.991C-176.911 101.398 -176.267 101.172 -175.676 101.483C-175.604 101.521 -175.539 101.571 -175.475 101.622L-175.467 101.609ZM246.08 438.399C246.466 438.7 246.684 439.206 246.601 439.702C245.543 445.774 244.287 451.916 242.874 457.972C242.733 458.591 242.109 458.907 241.504 458.678C240.899 458.449 240.519 457.742 240.661 457.123C242.063 451.115 243.308 445.021 244.363 438.984C244.479 438.345 245.064 437.998 245.672 438.192C245.82 438.233 245.943 438.311 246.059 438.401L246.08 438.399ZM-133.953 157.355C-133.657 157.586 -133.453 157.933 -133.41 158.321C-133.35 158.985 -133.799 159.512 -134.422 159.494C-135.141 159.474 -135.886 159.435 -136.623 159.384C-142.457 158.906 -147.904 157.757 -152.815 155.943C-153.42 155.714 -153.815 155.032 -153.673 154.414C-153.531 153.795 -152.933 153.458 -152.328 153.688C-147.617 155.421 -142.358 156.534 -136.742 156.991C-136.047 157.048 -135.344 157.092 -134.659 157.103C-134.399 157.119 -134.154 157.217 -133.948 157.378L-133.953 157.355ZM-175.476 132.594C-175.296 132.734 -175.147 132.925 -175.043 133.156C-172.568 138.995 -168.602 143.94 -163.281 147.869L-163.255 147.889C-162.74 148.29 -162.556 149.032 -162.868 149.555C-163.18 150.078 -163.869 150.194 -164.418 149.785C-170.154 145.57 -174.427 140.198 -177.11 133.898C-177.378 133.258 -177.143 132.583 -176.569 132.376C-176.215 132.241 -175.811 132.332 -175.489 132.584L-175.476 132.594ZM239.343 468.525C239.768 468.857 239.988 469.421 239.842 469.924C238.234 475.772 236.428 481.689 234.485 487.519C234.284 488.11 233.637 488.371 233.051 488.082C232.464 487.793 232.135 487.068 232.336 486.478C234.268 480.696 236.058 474.803 237.656 469.003C237.831 468.392 238.452 468.11 239.049 468.352C239.155 468.397 239.253 468.455 239.343 468.525ZM229.965 497.506C230.416 497.858 230.63 498.492 230.435 499.013C228.346 504.617 226.06 510.29 223.649 515.886C223.402 516.459 222.74 516.653 222.165 516.316C221.59 515.979 221.322 515.248 221.57 514.674C223.977 509.114 226.24 503.478 228.313 497.899C228.534 497.305 229.191 497.089 229.769 497.391C229.834 497.441 229.906 497.479 229.97 497.529L229.965 497.506ZM218.274 525.281C218.764 525.662 218.954 526.334 218.704 526.849C216.206 532.189 213.501 537.612 210.699 542.976C210.413 543.519 209.728 543.658 209.177 543.284C208.612 542.899 208.407 542.16 208.694 541.617C211.501 536.275 214.169 530.88 216.664 525.575C216.925 525.012 217.604 524.851 218.171 525.2C218.21 525.23 218.249 525.26 218.287 525.291L218.274 525.281ZM204.608 551.831C205.123 552.232 205.302 552.952 205.011 553.472C202.162 558.576 199.107 563.762 195.975 568.888C195.65 569.401 194.956 569.495 194.42 569.095L194.407 569.085C193.879 568.673 193.716 567.929 194.028 567.406C197.152 562.293 200.171 557.134 203.025 552.053C203.324 551.52 204.021 551.391 204.565 551.778C204.577 551.788 204.603 551.808 204.616 551.818L204.608 551.831ZM189.287 577.258C189.815 577.67 189.983 578.436 189.637 578.952C186.5 583.812 183.183 588.775 179.765 593.714C179.427 594.217 178.659 594.216 178.19 593.831C177.678 593.394 177.523 592.638 177.881 592.132C181.284 587.218 184.593 582.267 187.714 577.432C188.039 576.919 188.739 576.848 189.266 577.26L189.287 577.258ZM172.622 601.617C172.622 601.617 172.661 601.647 172.674 601.657C173.186 602.094 173.312 602.866 172.962 603.359C169.617 608.001 166.076 612.77 162.431 617.552C162.067 618.034 161.345 618.05 160.841 617.601C160.337 617.152 160.224 616.39 160.595 615.895C164.232 611.126 167.765 606.369 171.102 601.739C171.445 601.259 172.115 601.203 172.63 601.605L172.622 601.617ZM154.908 625.083C154.908 625.083 154.973 625.133 154.998 625.153C155.494 625.615 155.608 626.377 155.224 626.862C151.746 631.288 148.033 635.905 144.197 640.593C143.82 641.066 143.114 641.057 142.605 640.585C142.117 640.11 142.024 639.346 142.413 638.884C146.242 634.208 149.955 629.591 153.425 625.178C153.785 624.73 154.427 624.689 154.929 625.081L154.908 625.083ZM136.418 647.831C136.418 647.831 136.495 647.891 136.534 647.921C137.022 648.396 137.115 649.16 136.725 649.622C132.885 654.196 129.088 658.671 125.362 663.035C124.972 663.497 124.266 663.488 123.765 663.004C123.277 662.529 123.205 661.763 123.594 661.3C127.32 656.937 131.11 652.474 134.942 647.913C135.308 647.488 135.941 647.459 136.418 647.831ZM117.439 670.104C117.439 670.104 117.529 670.174 117.568 670.205C118.056 670.679 118.128 671.446 117.726 671.898L113.411 676.886C110.977 679.697 108.587 682.467 106.249 685.185C105.86 685.647 105.141 685.628 104.653 685.154C104.165 684.679 104.092 683.913 104.495 683.46C106.832 680.742 109.222 677.972 111.657 675.162L115.971 670.174C116.337 669.749 116.963 669.732 117.439 670.104ZM98.3524 692.274C98.3524 692.274 98.4296 692.335 98.4682 692.365C98.9564 692.839 99.0286 693.606 98.6393 694.069C94.2029 699.279 90.6332 703.578 87.3992 707.559C87.0228 708.031 86.296 708.025 85.7999 707.563C85.3038 707.101 85.2108 706.337 85.5872 705.864C88.8291 701.871 92.4117 697.582 96.8511 692.337C97.2165 691.911 97.8504 691.883 98.3266 692.254L98.3524 692.274ZM79.8232 714.992C79.8232 714.992 79.8747 715.032 79.9005 715.052C80.4045 715.502 80.5182 716.264 80.1468 716.759C76.1016 722.05 72.7665 726.738 69.9464 731.098C69.6215 731.61 68.9223 731.682 68.3946 731.27C67.8668 730.858 67.6986 730.091 68.0442 729.576C70.896 725.166 74.2549 720.441 78.3447 715.109C78.6924 714.652 79.3549 714.608 79.8569 715L79.8232 714.992ZM63.5655 739.651C64.0675 740.043 64.2546 740.749 63.9842 741.267C61.2036 746.537 58.7864 752.052 56.7811 757.646C56.5592 758.239 55.9283 758.476 55.3292 758.177C54.743 757.887 54.4342 757.16 54.6432 756.557C56.6703 750.868 59.143 745.265 61.9662 739.898C62.2524 739.355 62.9368 739.216 63.4883 739.59C63.514 739.611 63.5398 739.631 63.5655 739.651ZM179.506 834.024C180.021 834.426 180.205 835.168 179.893 835.691C179.581 836.213 178.879 836.32 178.343 835.92C173.514 832.338 167.985 829.163 161.913 826.48C161.298 826.206 160.973 825.504 161.148 824.893C161.324 824.282 161.958 824.011 162.56 824.275C168.797 827.031 174.497 830.301 179.493 834.014C179.493 834.014 179.506 834.024 179.519 834.034L179.506 834.024ZM189.256 842.774C189.256 842.774 189.372 842.864 189.429 842.927C194.17 848.104 197.862 853.846 200.436 859.985C200.704 860.624 200.456 861.29 199.882 861.497C199.317 861.691 198.645 861.354 198.377 860.715C195.943 854.871 192.419 849.411 187.903 844.484C187.439 843.972 187.413 843.223 187.828 842.781C188.204 842.401 188.801 842.4 189.264 842.761L189.256 842.774ZM151.039 820.05C151.412 820.342 151.638 820.836 151.563 821.319C151.468 821.955 150.887 822.324 150.271 822.143C144.736 820.496 138.84 820.025 132.759 820.756C132.156 820.827 131.538 820.345 131.395 819.691C131.251 819.037 131.631 818.437 132.235 818.365C138.606 817.6 144.796 818.094 150.626 819.822C150.774 819.862 150.918 819.937 151.047 820.038L151.039 820.05ZM203.496 872.037C203.766 872.248 203.965 872.572 204.024 872.935C204.964 879.407 204.701 885.894 203.235 892.246C203.094 892.864 202.483 893.191 201.865 892.952C201.26 892.722 200.873 892.028 201.022 891.397C202.415 885.343 202.666 879.147 201.775 872.993C201.673 872.334 202.105 871.774 202.718 871.748C202.993 871.738 203.259 871.834 203.491 872.015L203.496 872.037ZM121.675 821.246C121.869 821.397 122.017 821.588 122.113 821.831C122.368 822.46 122.112 823.138 121.534 823.323C116.525 825.003 111.275 827.429 105.953 830.547C105.433 830.851 104.732 830.622 104.377 830.027C104.023 829.433 104.153 828.712 104.673 828.407C110.118 825.217 115.483 822.731 120.611 821.014C120.97 820.902 121.362 820.983 121.671 821.224L121.675 821.246ZM52.75 767.865C53.1619 768.186 53.3816 768.75 53.2568 769.251C51.7595 775.167 50.691 781.287 50.0533 787.425C49.9918 788.068 49.4292 788.47 48.8103 788.324C48.1785 788.167 47.7389 787.525 47.8004 786.881C48.4421 780.616 49.5403 774.388 51.0594 768.377C51.2219 767.757 51.8379 767.452 52.4479 767.704C52.5539 767.749 52.6648 767.817 52.7549 767.888L52.75 767.865ZM198.622 902.29C199.111 902.672 199.306 903.366 199.049 903.894C198.282 905.408 197.44 906.919 196.544 908.333C194.23 911.985 191.463 915.321 188.326 918.237C187.894 918.647 187.168 918.548 186.724 918.033C186.28 917.519 186.284 916.755 186.716 916.345C189.727 913.536 192.395 910.328 194.614 906.826C195.477 905.462 196.293 904.024 197.028 902.56C197.301 902.007 197.993 901.856 198.553 902.218C198.578 902.238 198.617 902.268 198.643 902.288L198.622 902.29ZM96.2295 834.902C96.3325 834.983 96.4404 835.085 96.5196 835.203C96.9107 835.77 96.8482 836.507 96.351 836.866C91.9783 840.033 87.4471 843.693 82.896 847.749C82.4503 848.149 81.7324 848.037 81.2967 847.51C80.8611 846.983 80.8642 846.219 81.3227 845.83C85.9184 841.734 90.4942 838.034 94.9243 834.837C95.3115 834.56 95.8354 834.613 96.2344 834.925L96.2295 834.902ZM48.8314 798.826C49.1532 799.078 49.372 799.491 49.37 799.92C49.3175 806.197 49.7205 812.605 50.5553 818.939C50.6364 819.6 50.2125 820.148 49.5866 820.164C48.9687 820.168 48.3954 819.646 48.3014 818.974C47.4498 812.515 47.0557 806.002 47.1042 799.609C47.1112 798.961 47.6253 798.483 48.2422 798.572C48.4522 798.605 48.6512 798.686 48.8314 798.826ZM178.747 923.154C178.889 923.265 179.002 923.39 179.104 923.563C179.45 924.17 179.308 924.881 178.775 925.176C174.185 927.743 169.17 929.587 163.881 930.617C163.259 930.749 162.632 930.858 162.013 930.954C161.407 931.061 160.786 930.614 160.609 929.952C160.432 929.29 160.778 928.682 161.385 928.576C161.991 928.469 162.597 928.363 163.198 928.234C168.279 927.228 173.109 925.464 177.526 922.986C177.908 922.779 178.382 922.85 178.742 923.132L178.747 923.154ZM52.2855 830.813C52.5301 831.004 52.7192 831.282 52.7934 831.62C54.2076 837.92 56.0604 844.226 58.3074 850.335C58.5341 850.98 58.2725 851.635 57.6813 851.809C57.1109 851.981 56.4425 851.609 56.2029 850.955C53.9183 844.723 52.0199 838.307 50.5889 831.881C50.4455 831.227 50.813 830.617 51.4289 830.555C51.7409 830.519 52.0409 830.622 52.2855 830.813ZM74.2161 853.798C74.2161 853.798 74.3448 853.898 74.3933 853.973C74.8577 854.485 74.8754 855.247 74.4346 855.669C71.3038 858.759 68.1106 862.098 64.8895 865.603C67.3318 870.463 70.0198 875.178 72.9385 879.68C73.3087 880.249 73.2047 880.99 72.7104 881.315C72.2162 881.64 71.4993 881.435 71.129 880.866C68.3123 876.537 65.7055 871.997 63.3365 867.326C63.0344 867.651 62.7372 867.999 62.4351 868.324C62.033 868.776 61.314 868.757 60.8417 868.258C60.3615 867.771 60.3022 867.014 60.7044 866.562C61.1828 866.019 61.674 865.487 62.1653 864.954C61.896 864.407 61.6347 863.848 61.3733 863.289C61.0763 862.665 61.2864 861.969 61.842 861.73C62.3976 861.49 63.0848 861.802 63.3818 862.427C63.5036 862.69 63.6253 862.953 63.755 863.204C66.8077 859.904 69.8405 856.757 72.8089 853.802C73.1763 853.435 73.7735 853.434 74.224 853.785L74.2161 853.798ZM150.437 929.733C150.72 929.954 150.924 930.3 150.966 930.688C151.027 931.352 150.59 931.89 149.967 931.871C143.887 931.781 137.705 930.881 131.599 929.162C130.975 928.993 130.544 928.339 130.634 927.68C130.716 927.034 131.284 926.654 131.92 926.834C137.853 928.492 143.838 929.368 149.726 929.458C149.993 929.461 150.239 929.56 150.444 929.72L150.437 929.733ZM80.3829 890.125C80.473 890.196 80.5502 890.256 80.6166 890.364C84.7503 895.59 89.2257 900.429 93.9299 904.754C94.426 905.216 94.5397 905.978 94.1554 906.463C93.779 906.936 93.0779 906.949 92.561 906.49C87.7617 902.071 83.1863 897.117 78.9526 891.776C78.5249 891.236 78.5538 890.492 79.0123 890.103C79.3897 889.78 79.9502 889.806 80.375 890.138L80.3829 890.125ZM120.559 922.752C120.984 923.084 121.209 923.67 121.042 924.176C120.854 924.777 120.22 925.048 119.626 924.771C113.891 922.165 108.231 918.831 102.788 914.882C102.231 914.485 102.055 913.731 102.354 913.198C102.653 912.665 103.355 912.559 103.899 912.946C109.193 916.797 114.716 920.042 120.286 922.576C120.379 922.611 120.469 922.682 120.546 922.742L120.559 922.752ZM54.4948 875.361C54.4948 875.361 54.572 875.421 54.6106 875.451C55.0988 875.925 55.1789 876.68 54.8025 877.152C51.1832 881.468 47.4778 886.072 43.7991 890.846C43.4355 891.328 42.7215 891.332 42.2096 890.895C41.7056 890.445 41.5998 889.671 41.9762 889.199C45.6708 884.4 49.3841 879.783 53.0192 875.443C53.3847 875.018 54.0185 874.989 54.4948 875.361ZM36.3973 898.49C36.3973 898.49 36.4359 898.52 36.4617 898.54C36.9657 898.99 37.1002 899.749 36.7288 900.244C33.3611 904.831 29.9101 909.67 26.4967 914.633C26.1461 915.126 25.4034 915.144 24.9221 914.75C24.4023 914.325 24.2548 913.556 24.6134 913.051C28.0555 908.073 31.5015 903.211 34.8901 898.622C35.2457 898.152 35.9082 898.108 36.4102 898.5L36.3973 898.49ZM19.5188 922.701L19.5317 922.711C20.0594 923.123 20.2069 923.893 19.882 924.405C17.0104 928.725 14.0794 933.26 11.1711 937.851L10.2519 939.301C9.927 939.814 9.23279 939.908 8.69214 939.486C8.16438 939.074 7.98823 938.32 8.32105 937.795L9.24028 936.344C12.1565 931.741 15.0954 927.193 17.9749 922.861C18.2998 922.348 18.9989 922.277 19.5267 922.689L19.5188 922.701ZM3.62348 947.699C4.15125 948.111 4.31453 948.855 4.0025 949.378C0.981301 954.329 -2.0835 959.47 -5.12553 964.666C-5.43756 965.189 -6.12683 965.305 -6.66252 964.906C-7.27842 964.481 -7.39517 963.754 -7.09601 963.221C-4.06684 958.015 -0.973328 952.859 2.0558 947.896C2.3807 947.383 3.06204 947.279 3.61061 947.689L3.62348 947.699ZM-11.4401 973.327C-10.9252 973.729 -10.746 974.448 -11.0452 974.981C-13.9674 980.14 -16.8777 985.401 -19.7019 990.618C-19.9882 991.161 -20.6854 991.29 -21.2369 990.915C-21.7805 990.528 -21.9983 989.779 -21.712 989.236C-18.8878 984.019 -15.9696 978.745 -13.0394 973.574C-12.7403 973.041 -12.051 972.925 -11.5074 973.312C-11.4945 973.322 -11.4817 973.332 -11.4559 973.352L-11.4401 973.327ZM-25.7283 999.522C-25.2263 999.914 -25.0392 1000.62 -25.3097 1001.14C-30.4687 1010.98 -33.4138 1017.06 -33.4406 1017.13C-33.714 1017.68 -34.3805 1017.85 -34.9608 1017.5C-35.5202 1017.13 -35.7667 1016.4 -35.4982 1015.82C-35.4665 1015.77 -32.5105 1009.65 -27.3356 999.782C-27.0493 999.239 -26.365 999.1 -25.8135 999.475C-25.7877 999.495 -25.762 999.515 -25.7362 999.535L-25.7283 999.522Z" fill="#006DC3"/>
</svg>
