<svg width="18" height="28" viewBox="0 0 18 28" fill="none" xmlns="http://www.w3.org/2000/svg">
<path fill-rule="evenodd" clip-rule="evenodd" d="M8.99972 4.47511e-05C8.7345 4.4728e-05 8.48014 0.105401 8.29261 0.292937C8.10507 0.480473 7.99972 0.734828 7.99972 1.00004L7.99971 24.586L1.70771 18.292C1.51994 18.1043 1.26526 17.9988 0.999713 17.9988C0.734161 17.9988 0.479486 18.1043 0.291712 18.292C0.103939 18.4798 -0.0015501 18.7345 -0.00155013 19C-0.00155015 19.2656 0.103939 19.5203 0.291712 19.708L8.29171 27.708C8.3846 27.8012 8.49496 27.8751 8.61645 27.9255C8.73794 27.9759 8.86818 28.0018 8.99971 28.0018C9.13125 28.0018 9.26149 27.9759 9.38298 27.9255C9.50447 27.8751 9.61482 27.8012 9.70771 27.708L17.7077 19.708C17.8007 19.6151 17.8744 19.5047 17.9248 19.3832C17.9751 19.2617 18.001 19.1315 18.001 19C18.001 18.7345 17.8955 18.4798 17.7077 18.292C17.5199 18.1043 17.2653 17.9988 16.9997 17.9988C16.7342 17.9988 16.4795 18.1043 16.2917 18.292L9.99971 24.586L9.99972 1.00004C9.99972 0.734828 9.89436 0.480474 9.70682 0.292937C9.51928 0.105401 9.26493 4.47743e-05 8.99972 4.47511e-05Z" fill="white"/>
</svg>
