<svg width="26" height="26" viewBox="0 0 26 26" fill="none" xmlns="http://www.w3.org/2000/svg">
<path d="M18.1683 5.87531C17.9196 5.87531 17.6765 5.95104 17.4697 6.09293C17.263 6.23482 17.1018 6.43649 17.0067 6.67244C16.9115 6.90839 16.8866 7.16803 16.9351 7.41851C16.9836 7.669 17.1034 7.89908 17.2792 8.07967C17.455 8.26026 17.6791 8.38324 17.923 8.43307C18.1669 8.48289 18.4197 8.45732 18.6494 8.35959C18.8791 8.26185 19.0755 8.09635 19.2137 7.884C19.3518 7.67164 19.4256 7.42199 19.4256 7.16659C19.4256 6.82412 19.2931 6.49568 19.0573 6.25352C18.8215 6.01135 18.5017 5.87531 18.1683 5.87531ZM22.9879 8.4794C22.9676 7.58658 22.8047 6.70324 22.506 5.86455C22.2395 5.14695 21.8249 4.49716 21.2906 3.9599C20.7717 3.40833 20.1376 2.98517 19.436 2.72242C18.6216 2.40623 17.7605 2.23518 16.89 2.21666C15.7794 2.1521 15.4231 2.1521 12.5732 2.1521C9.72336 2.1521 9.36712 2.1521 8.2565 2.21666C7.38597 2.23518 6.52492 2.40623 5.71046 2.72242C5.01022 2.98783 4.3766 3.41063 3.85593 3.9599C3.31888 4.49275 2.90685 5.14405 2.65101 5.86455C2.34314 6.70103 2.1766 7.58535 2.15857 8.4794C2.0957 9.62004 2.0957 9.9859 2.0957 12.9128C2.0957 15.8397 2.0957 16.2056 2.15857 17.3462C2.1766 18.2403 2.34314 19.1246 2.65101 19.9611C2.90685 20.6816 3.31888 21.3329 3.85593 21.8657C4.3766 22.415 5.01022 22.8378 5.71046 23.1032C6.52492 23.4194 7.38597 23.5905 8.2565 23.609C9.36712 23.6735 9.72336 23.6735 12.5732 23.6735C15.4231 23.6735 15.7794 23.6735 16.89 23.609C17.7605 23.5905 18.6216 23.4194 19.436 23.1032C20.1376 22.8405 20.7717 22.4173 21.2906 21.8657C21.8273 21.3305 22.2423 20.6801 22.506 19.9611C22.8047 19.1224 22.9676 18.2391 22.9879 17.3462C22.9879 16.2056 23.0508 15.8397 23.0508 12.9128C23.0508 9.9859 23.0508 9.62004 22.9879 8.4794ZM21.102 17.2171C21.0943 17.9002 20.9739 18.5769 20.7457 19.2186C20.5784 19.6869 20.3097 20.11 19.9599 20.4561C19.6201 20.8117 19.2089 21.0871 18.755 21.2631C18.1302 21.4975 17.4713 21.6212 16.8062 21.629C15.7584 21.6828 15.3708 21.6936 12.6152 21.6936C9.85956 21.6936 9.47189 21.6936 8.42414 21.629C7.73356 21.6423 7.04592 21.5331 6.3915 21.3062C5.9575 21.1212 5.56519 20.8465 5.23897 20.4991C4.8912 20.1534 4.62587 19.7299 4.46363 19.2616C4.20783 18.6108 4.06595 17.9186 4.04453 17.2171C4.04453 16.141 3.98166 15.7429 3.98166 12.9128C3.98166 10.0827 3.98166 9.6846 4.04453 8.60853C4.04922 7.91022 4.17335 7.21819 4.41124 6.56399C4.59569 6.1098 4.87882 5.70492 5.23897 5.38032C5.55729 5.01033 5.95069 4.71648 6.3915 4.51946C7.03016 4.28277 7.70328 4.15906 8.38223 4.15359C9.42998 4.15359 9.81765 4.08903 12.5732 4.08903C15.3288 4.08903 15.7165 4.08903 16.7643 4.15359C17.4293 4.16143 18.0883 4.28514 18.7131 4.51946C19.1892 4.70094 19.6166 4.99599 19.9599 5.38032C20.3033 5.71086 20.5716 6.11498 20.7457 6.56399C20.9786 7.21925 21.0991 7.911 21.102 8.60853C21.1544 9.6846 21.1648 10.0827 21.1648 12.9128C21.1648 15.7429 21.1544 16.141 21.102 17.2171ZM12.5732 7.39257C11.5106 7.3947 10.4725 7.72026 9.58993 8.32813C8.7074 8.93599 8.0201 9.79888 7.61489 10.8078C7.20968 11.8166 7.10473 12.9262 7.3133 13.9963C7.52188 15.0665 8.03462 16.0491 8.78674 16.82C9.53886 17.591 10.4966 18.1156 11.539 18.3278C12.5813 18.5399 13.6615 18.43 14.6431 18.0118C15.6246 17.5937 16.4634 16.8862 17.0536 15.9786C17.6437 15.071 17.9587 14.0042 17.9587 12.9128C17.9601 12.1866 17.8217 11.4672 17.5514 10.7961C17.2811 10.125 16.8843 9.51546 16.3838 9.00243C15.8833 8.4894 15.289 8.08306 14.635 7.80678C13.9811 7.5305 13.2804 7.38973 12.5732 7.39257ZM12.5732 16.4961C11.8832 16.4961 11.2086 16.286 10.6349 15.8922C10.0611 15.4985 9.61389 14.9389 9.34981 14.2841C9.08573 13.6293 9.01664 12.9088 9.15127 12.2137C9.28589 11.5187 9.61819 10.8802 10.1061 10.379C10.5941 9.87789 11.2158 9.53662 11.8926 9.39835C12.5694 9.26009 13.2709 9.33105 13.9084 9.60226C14.546 9.87348 15.0909 10.3328 15.4743 10.922C15.8576 11.5113 16.0623 12.2041 16.0623 12.9128C16.0623 13.3834 15.972 13.8493 15.7967 14.2841C15.6213 14.7188 15.3643 15.1139 15.0404 15.4466C14.7164 15.7794 14.3317 16.0433 13.9084 16.2234C13.4851 16.4035 13.0314 16.4961 12.5732 16.4961Z" fill="#FF6C99"/>
</svg>
