<svg width="16" height="15" viewBox="0 0 16 15" fill="none" xmlns="http://www.w3.org/2000/svg">
<path d="M8.00035 13.125C7.79963 13.1248 7.60363 13.0679 7.43785 12.9618C4.98191 11.3988 3.91847 10.3271 3.33191 9.65713C2.08191 8.22891 1.48347 6.7626 1.50035 5.17471C1.52003 3.35508 3.07722 1.875 4.9716 1.875C6.3491 1.875 7.30316 2.60244 7.85878 3.2083C7.87639 3.2273 7.89813 3.24253 7.92255 3.25297C7.94698 3.26341 7.97351 3.26882 8.00035 3.26882C8.02719 3.26882 8.05372 3.26341 8.07814 3.25297C8.10256 3.24253 8.12431 3.2273 8.14191 3.2083C8.69753 2.60186 9.6516 1.875 11.0291 1.875C12.9235 1.875 14.4807 3.35508 14.5003 5.175C14.5172 6.76318 13.9182 8.22949 12.6688 9.65742C12.0822 10.3274 11.0188 11.3991 8.56285 12.9621C8.39703 13.0681 8.20103 13.1248 8.00035 13.125Z" fill="#FF6C99"/>
</svg>
