<svg width="119" height="37" viewBox="0 0 119 37" fill="none" xmlns="http://www.w3.org/2000/svg">
<path d="M82.3984 13.0554C85.4436 13.0411 86.8622 16.9771 86.8776 17.017C86.9316 17.1682 87.0626 17.268 87.2091 17.268H87.3993C87.4918 17.268 87.5791 17.2281 87.6434 17.1568C88.4606 16.2812 89.414 14.8637 89.581 13.8198C89.6812 13.1923 89.5347 12.6162 89.1467 12.1056C87.9749 10.5626 84.8937 10.0749 83.5857 10.0806C77.4773 10.1063 71.9574 15.8876 70.7496 23.5257C70.1971 27.0167 70.8678 30.3195 72.587 32.5841C74.0415 34.4979 76.141 35.5475 78.5001 35.5361C85.0093 35.5075 87.7565 29.056 87.7822 28.9904C87.8361 28.8592 87.8207 28.708 87.7436 28.5939L87.6203 28.4085C87.5046 28.2346 87.2862 28.1975 87.1269 28.3258C87.0909 28.3543 83.4495 31.2892 80.651 31.3006C79.3018 31.3063 78.202 30.7616 77.3822 29.6835C76.0948 27.9893 75.6527 25.1428 76.1693 21.8743C76.6858 18.6057 78.5797 13.0725 82.3984 13.0554Z" fill="white"/>
<path d="M61.9917 11.6891C61.6525 10.8877 61.0408 10.5511 60.3727 10.457C60.3213 10.4485 60.2622 10.4456 60.2082 10.4399C60.1466 10.4342 60.0849 10.4285 60.0232 10.4285C59.9436 10.4228 59.8716 10.4114 59.7868 10.4114C58.1087 10.4171 55.7445 11.5751 54.015 13.7398C54.1255 12.8614 53.9559 12.097 53.5165 11.518C52.9897 10.8249 52.1006 10.4428 51.0135 10.4485C50.3839 10.4485 49.7389 10.6281 48.968 10.8905C48.8575 10.9276 48.7598 10.9989 48.7239 11.1187C48.6879 11.2414 48.6956 11.3497 48.7624 11.4524C48.7675 11.4695 49.3278 13.4261 47.7679 23.2945C47.57 24.5409 47.3233 25.813 47.0638 27.1621C46.7965 28.5397 46.5215 29.9629 46.2954 31.3947C46.0487 32.9576 46.1695 34.0357 46.6629 34.686C47.0458 35.1909 47.6445 35.4333 48.4926 35.4305C49.1016 35.4305 49.7672 35.2793 50.4739 35.1224C50.7463 35.0625 51.0264 34.9998 51.3065 34.9456C51.453 34.9171 51.5686 34.7887 51.5943 34.6261C51.6097 34.5263 51.5892 34.4236 51.5429 34.3438C51.4889 34.1498 51.0855 32.276 52.4372 23.7395C53.3675 17.8641 54.9222 15.1231 57.3352 15.1117C57.8543 15.1117 58.3965 15.3485 59.039 15.7306C59.0518 15.7392 59.0647 15.7478 59.0775 15.7563C59.6043 16.0615 59.8767 16.4579 60.2648 16.5378C62.1638 16.8401 62.7626 13.5031 61.9968 11.6891H61.9917Z" fill="white"/>
<path d="M25.835 3.88284C25.835 3.88284 25.8222 3.86002 25.8145 3.84861C25.8145 3.84861 25.8093 3.84291 25.8068 3.84005C25.6885 3.69459 25.5755 3.58051 25.4701 3.48924C23.9 1.89489 20.6389 1.03924 18.1539 1.05065C8.95151 1.09058 2.48593 10.748 1.07254 19.815C0.275908 24.9374 1.0931 29.4096 3.37507 32.4072C5.34353 34.9913 8.37074 36.3489 12.1329 36.3318C17.0361 36.3118 22.0472 32.7124 23.5428 28.1404C23.5839 28.0177 23.5659 27.878 23.4939 27.7725L23.4014 27.6327C23.3423 27.5471 23.255 27.4901 23.1599 27.4758C23.0622 27.4587 22.9671 27.4929 22.89 27.5585C20.1147 30.0456 16.9615 31.369 13.775 31.3804C11.6164 31.389 9.88949 30.5619 8.64314 28.9247C6.79546 26.4975 6.12218 22.2878 6.84172 17.6616C8.2551 8.58603 12.855 4.50746 16.7868 4.49034C19.2975 4.47894 21.4895 6.00199 22.8284 8.62596C22.8335 8.64308 22.8335 8.66304 22.8412 8.68301C22.998 9.00245 23.1316 9.36752 23.2909 9.68126C23.3115 9.73545 23.3372 9.78109 23.3577 9.83528C23.3783 9.89232 23.4169 9.93225 23.458 9.96933C23.7972 10.4856 24.2752 10.7223 25.2157 10.0435C25.8813 9.57858 26.7756 8.55181 26.6625 6.4241C26.5957 5.15204 26.2154 4.36485 25.8402 3.88284H25.835Z" fill="white"/>
<path d="M66.664 10.2745C66.0344 10.2745 65.3893 10.4542 64.6184 10.7166C64.4514 10.7737 64.346 10.9591 64.3717 11.1501C64.3794 11.2072 64.4 11.2614 64.4257 11.3099C64.4899 11.5266 64.9088 13.4376 63.3849 23.075C63.1793 24.3699 62.9352 25.6876 62.6859 27.0138C62.4367 28.3543 62.1848 29.7005 61.9741 31.0353C61.7711 32.3217 61.9561 33.3513 62.524 34.0986C63.092 34.8458 64.0351 35.2565 65.1761 35.2537C65.2043 35.2537 65.2275 35.2423 65.2532 35.2366C65.5178 35.2451 65.7902 35.2223 66.0729 35.151C67.2242 34.8601 68.2547 34.1955 68.9973 32.8065C69.3674 32.1135 69.2697 31.7798 68.7198 31.7113C67.5248 31.5601 67.1111 31.1352 67.1651 29.5209C67.219 29.0702 67.3321 28.0862 67.3989 27.6641C67.6456 26.1011 68.0028 24.0932 68.3934 21.9056C68.8534 19.3216 69.3725 16.3953 69.7991 13.7028C69.9353 12.8329 69.7631 12.0514 69.298 11.4411C68.7326 10.6967 67.7715 10.2717 66.6614 10.2774L66.664 10.2745Z" fill="white"/>
<path d="M71.1562 2.02889C70.6885 1.41282 70.0229 1.07627 69.2828 1.07912C67.7307 1.08482 66.1657 2.69059 65.8676 4.57871C65.7134 5.55414 65.9267 6.51247 66.4509 7.20269C66.9161 7.8159 67.5688 8.1496 68.2909 8.14675C69.8636 8.14105 71.4415 6.5581 71.737 4.6928C71.8938 3.69454 71.683 2.72196 71.1562 2.02889Z" fill="white"/>
<path d="M94.4972 10.1576C93.8676 10.1576 93.2225 10.3373 92.4516 10.5997C92.2846 10.6567 92.1792 10.8421 92.2049 11.0332C92.2126 11.0902 92.2332 11.1444 92.2589 11.1929C92.3231 11.4097 92.742 13.3206 91.2181 22.958C91.0125 24.2529 90.7684 25.5706 90.5191 26.8969C90.2699 28.2374 90.018 29.5836 89.8073 30.9184C89.6043 32.2047 89.7893 33.2343 90.3572 33.9816C90.9252 34.7289 91.8683 35.1396 93.0092 35.1367C93.0375 35.1367 93.0606 35.1253 93.0863 35.1196C93.351 35.1282 93.6234 35.1054 93.9087 35.0341C95.0599 34.7431 96.0904 34.0786 96.8331 32.6896C97.2031 31.9965 97.1055 31.6628 96.5556 31.5944C95.3606 31.4432 94.9469 31.0182 95.0008 29.4039C95.0548 28.9533 95.1679 27.9693 95.2347 27.5472C95.4814 25.9842 95.8386 23.9763 96.2292 21.7887C96.6892 19.2046 97.2083 16.2783 97.6349 13.5859C97.7711 12.716 97.5989 11.9345 97.1338 11.3241C96.5684 10.5797 95.6073 10.1547 94.4972 10.1604V10.1576Z" fill="white"/>
<path d="M98.9917 1.91207C98.524 1.296 97.8585 0.959446 97.1184 0.962298C95.5662 0.968003 94.0012 2.57376 93.7031 4.46189C93.5489 5.43732 93.7622 6.39565 94.2864 7.08587C94.7516 7.69908 95.4043 8.03278 96.1264 8.02993C97.6991 8.02423 99.277 6.44128 99.5725 4.57597C99.7293 3.57772 99.5185 2.60514 98.9917 1.91207Z" fill="white"/>
<path d="M45.3399 10.8734C43.7312 10.457 42.6699 10.8677 41.9889 11.4838C41.4158 11.9344 40.9327 12.7986 40.7734 13.0496C40.5986 13.3263 40.4007 13.4945 40.226 13.3006C39.9407 12.8157 39.5656 12.3936 39.1904 12.0371C38.2678 10.8763 36.9829 10.3344 35.3639 10.4C33.0203 10.4969 30.6047 12.0856 28.8881 14.5128C27.4259 16.5777 26.4288 18.9051 25.8172 21.415C25.0848 24.4297 24.8047 27.376 25.2852 30.1682C25.7966 33.1402 27.4824 35.2336 29.9288 35.7584C31.5195 36.1007 33.0434 35.7756 34.4774 34.7859C34.9348 34.5006 37.3016 32.815 37.9183 31.794C37.9003 32.1448 37.8875 32.4899 37.8952 32.8293C37.9183 33.9901 38.2061 34.957 38.9822 35.4789C39.5861 35.8839 40.2851 35.9609 41.038 35.7699C42.1893 35.4789 43.2198 34.8144 43.9625 33.4254C44.3325 32.7323 44.2349 32.3986 43.6849 32.3302C42.49 32.179 42.3255 31.6998 42.3795 30.0855C42.4 29.4523 42.4874 28.7963 42.5953 28.1489C43.4202 23.2632 44.2554 18.3774 45.088 13.4888C45.2088 12.7758 45.327 12.0599 45.4555 11.3469C45.4966 11.1101 45.4709 10.9504 45.3347 10.8734H45.3399ZM37.2476 28.4484C36.469 29.7889 35.5438 30.9155 34.3437 31.543C32.7582 32.3729 31.2369 31.7597 30.4608 30.0057C29.8492 28.6224 29.7258 27.008 29.8466 25.2853C29.8954 24.5837 29.9957 23.8735 30.0445 23.4001C30.5225 20.6649 31.2471 18.2748 32.807 16.2526C34.814 13.6486 37.1988 13.563 38.4785 16.0301C39.1698 17.3649 39.3728 18.9849 39.3497 20.719C39.3111 23.4143 38.6636 26.0069 37.2476 28.4455V28.4484Z" fill="white"/>
<path d="M118.866 10.5625C117.258 10.1461 116.196 10.5568 115.515 11.1729C114.942 11.6235 114.459 12.4877 114.3 12.7387C114.125 13.0154 113.927 13.1836 113.752 12.9897C113.467 12.5048 113.092 12.0827 112.717 11.7262C111.794 10.5654 110.509 10.0235 108.89 10.0891C106.547 10.186 104.131 11.7747 102.415 14.2019C100.952 16.2668 99.9553 18.5942 99.3437 21.1041C98.6113 24.1188 98.3312 27.0651 98.8117 29.8573C99.3231 32.8293 101.009 34.9227 103.455 35.4475C105.046 35.7898 106.57 35.4646 108.004 34.4749C108.461 34.1897 110.828 32.5041 111.445 31.483C111.427 31.8339 111.414 32.179 111.422 32.5184C111.445 33.6792 111.733 34.6461 112.509 35.168C113.113 35.573 113.812 35.65 114.565 35.4589C115.716 35.168 116.746 34.5035 117.489 33.1145C117.859 32.4214 117.761 32.0877 117.211 32.0192C116.016 31.8681 115.852 31.3889 115.906 29.7746C115.927 29.1414 116.014 28.4854 116.122 27.838C116.947 22.9523 117.782 18.0665 118.615 13.1779C118.735 12.4649 118.854 11.749 118.982 11.036C119.023 10.7992 118.997 10.6395 118.861 10.5625H118.866ZM110.774 28.1375C109.995 29.478 109.07 30.6046 107.87 31.232C106.285 32.062 104.763 31.4488 103.987 29.6947C103.376 28.3114 103.252 26.6971 103.373 24.9744C103.422 24.2728 103.522 23.5626 103.571 23.0892C104.049 20.3539 104.774 17.9638 106.333 15.9417C108.34 13.3377 110.725 13.2521 112.005 15.7192C112.696 17.054 112.899 18.674 112.876 20.4081C112.838 23.1034 112.19 25.696 110.774 28.1346V28.1375Z" fill="white"/>
<path d="M81.6231 12.1944C84.6683 12.1802 86.0868 16.1162 86.1023 16.1561C86.1562 16.3073 86.2873 16.4071 86.4338 16.4071H86.6239C86.7164 16.4071 86.8038 16.3671 86.8681 16.2958C87.6852 15.4202 88.6386 14.0027 88.8057 12.9588C88.9059 12.3314 88.7594 11.7552 88.3714 11.2447C87.1996 9.70167 84.1184 9.21395 82.8104 9.21965C76.702 9.24532 71.1821 15.0266 69.9743 22.6647C69.4218 26.1557 70.0925 29.4585 71.8117 31.7231C73.2662 33.6369 75.3657 34.6865 77.7247 34.6751C84.234 34.6466 86.9811 28.195 87.0068 28.1294C87.0608 27.9982 87.0454 27.8471 86.9683 27.733L86.8449 27.5476C86.7293 27.3736 86.5109 27.3365 86.3515 27.4649C86.3155 27.4934 82.6742 30.4283 79.8757 30.4397C78.5265 30.4454 77.4266 29.9006 76.6069 28.8225C75.3194 27.1283 74.8774 24.2819 75.3939 21.0133C75.9105 17.7447 77.8044 12.2116 81.6231 12.1944Z" fill="#0099D7"/>
<path d="M61.2164 10.8283C60.8772 10.0268 60.2656 9.69029 59.5974 9.59617C59.546 9.58762 59.4869 9.58476 59.433 9.57906C59.3713 9.57336 59.3096 9.56765 59.2479 9.56765C59.1683 9.56195 59.0963 9.55054 59.0115 9.55054C57.3335 9.55624 54.9692 10.7142 53.2398 12.879C53.3503 12.0005 53.1807 11.2362 52.7412 10.6572C52.2144 9.9641 51.3253 9.58191 50.2383 9.58762C49.6087 9.58762 48.9637 9.7673 48.1927 10.0297C48.0822 10.0668 47.9846 10.1381 47.9486 10.2579C47.9126 10.3805 47.9203 10.4889 47.9871 10.5916C47.9923 10.6087 48.5525 12.5653 46.9926 22.4337C46.7948 23.6801 46.5481 24.9522 46.2885 26.3012C46.0212 27.6788 45.7463 29.102 45.5201 30.5338C45.2734 32.0968 45.3942 33.1749 45.8876 33.8252C46.2705 34.33 46.8693 34.5725 47.7173 34.5696C48.3263 34.5696 48.9919 34.4184 49.6986 34.2616C49.971 34.2017 50.2511 34.1389 50.5312 34.0847C50.6777 34.0562 50.7933 33.9279 50.819 33.7653C50.8345 33.6655 50.8139 33.5628 50.7676 33.4829C50.7137 33.289 50.3102 31.4151 51.6619 22.8786C52.5922 17.0032 54.1469 14.2623 56.5599 14.2509C57.079 14.2509 57.6213 14.4876 58.2637 14.8698C58.2766 14.8784 58.2894 14.8869 58.3023 14.8955C58.8291 15.2007 59.1015 15.5971 59.4895 15.677C61.3886 15.9793 61.9873 12.6423 61.2215 10.8283H61.2164Z" fill="#0099D7"/>
<path d="M25.0597 3.022C25.0597 3.022 25.0468 2.99918 25.0391 2.98777C25.0391 2.98777 25.034 2.98207 25.0314 2.97921C24.9132 2.83375 24.8001 2.71967 24.6948 2.6284C23.1246 1.03405 19.8636 0.178401 17.3786 0.18981C8.17618 0.22974 1.7106 9.88712 0.297213 18.9541C-0.499422 24.0766 0.317771 28.5488 2.59974 31.5464C4.5682 34.1304 7.59541 35.488 11.3576 35.4709C16.2607 35.451 21.2718 31.8515 22.7674 27.2795C22.8086 27.1569 22.7906 27.0171 22.7186 26.9116L22.6261 26.7719C22.567 26.6863 22.4796 26.6293 22.3845 26.615C22.2869 26.5979 22.1918 26.6321 22.1147 26.6977C19.3393 29.1848 16.1862 30.5082 12.9997 30.5196C10.8411 30.5281 9.11416 29.701 7.86781 28.0639C6.02013 25.6367 5.34685 21.4269 6.06639 16.8007C7.47977 7.72519 12.0797 3.64662 16.0115 3.6295C18.5222 3.6181 20.7142 5.14115 22.053 7.76512C22.0582 7.78224 22.0582 7.8022 22.0659 7.82217C22.2226 8.14161 22.3563 8.50668 22.5156 8.82042C22.5362 8.87461 22.5619 8.92025 22.5824 8.97444C22.603 9.03148 22.6415 9.07141 22.6826 9.10849C23.0219 9.62473 23.4998 9.86146 24.4404 9.18264C25.106 8.71774 26.0002 7.69097 25.8872 5.56326C25.8203 4.2912 25.44 3.50401 25.0648 3.022H25.0597Z" fill="#0099D7"/>
<path d="M65.8883 9.41357C65.2587 9.41357 64.6137 9.59326 63.8428 9.85566C63.6757 9.9127 63.5704 10.0981 63.5961 10.2892C63.6038 10.3462 63.6243 10.4004 63.65 10.4489C63.7143 10.6657 64.1332 12.5766 62.6093 22.214C62.4037 23.5089 62.1596 24.8266 61.9103 26.1528C61.661 27.4934 61.4092 28.8396 61.1985 30.1744C60.9955 31.4607 61.1805 32.4903 61.7484 33.2376C62.3163 33.9849 63.2594 34.3956 64.4004 34.3927C64.4287 34.3927 64.4518 34.3813 64.4775 34.3756C64.7422 34.3842 65.0146 34.3613 65.2973 34.29C66.4485 33.9991 67.479 33.3346 68.2217 31.9456C68.5917 31.2525 68.4941 30.9188 67.9442 30.8503C66.7492 30.6992 66.3355 30.2742 66.3894 28.6599C66.4434 28.2092 66.5565 27.2253 66.6233 26.8031C66.87 25.2402 67.2272 23.2322 67.6178 21.0446C68.0778 18.4606 68.5969 15.5343 69.0235 12.8419C69.1597 11.972 68.9875 11.1905 68.5224 10.5801C67.957 9.83569 66.9959 9.41072 65.8858 9.41643L65.8883 9.41357Z" fill="#0099D7"/>
<path d="M70.3808 1.16792C69.9131 0.55186 69.2476 0.215305 68.5075 0.218158C66.9553 0.223862 65.3903 1.82962 65.0922 3.71775C64.938 4.69318 65.1513 5.65151 65.6756 6.34173C66.1407 6.95494 66.7934 7.28864 67.5155 7.28579C69.0882 7.28008 70.6661 5.69714 70.9616 3.83183C71.1184 2.83358 70.9076 1.861 70.3808 1.16792Z" fill="#0099D7"/>
<path d="M93.7215 9.29663C93.0919 9.29663 92.4469 9.47632 91.676 9.73872C91.5089 9.79576 91.4036 9.98115 91.4293 10.1722C91.437 10.2293 91.4575 10.2835 91.4832 10.332C91.5475 10.5487 91.9664 12.4597 90.4425 22.0971C90.2369 23.392 89.9928 24.7097 89.7435 26.0359C89.4942 27.3764 89.2424 28.7226 89.0317 30.0574C88.8286 31.3438 89.0137 32.3734 89.5816 33.1206C90.1495 33.8679 91.0926 34.2786 92.2336 34.2758C92.2619 34.2758 92.285 34.2644 92.3107 34.2587C92.5754 34.2672 92.8478 34.2444 93.133 34.1731C94.2843 33.8822 95.3148 33.2176 96.0575 31.8286C96.4275 31.1356 96.3299 30.8019 95.7799 30.7334C94.585 30.5822 94.1712 30.1573 94.2252 28.5429C94.2792 28.0923 94.3922 27.1083 94.459 26.6862C94.7057 25.1232 95.0629 23.1153 95.4536 20.9277C95.9135 18.3437 96.4326 15.4173 96.8592 12.7249C96.9954 11.855 96.8233 11.0735 96.3581 10.4632C95.7928 9.71875 94.8317 9.29378 93.7215 9.29948V9.29663Z" fill="#0099D7"/>
<path d="M98.2161 1.0511C97.7484 0.435038 97.0828 0.0984842 96.3427 0.101336C94.7906 0.107041 93.2256 1.7128 92.9275 3.60093C92.7733 4.57636 92.9866 5.53468 93.5108 6.22491C93.9759 6.83812 94.6287 7.17182 95.3508 7.16897C96.9235 7.16326 98.5013 5.58032 98.7969 3.71501C98.9536 2.71676 98.7429 1.74418 98.2161 1.0511Z" fill="#0099D7"/>
<path d="M44.5645 10.0126C42.9559 9.59617 41.8945 10.0069 41.2135 10.6229C40.6405 11.0736 40.1574 11.9378 39.998 12.1888C39.8233 12.4654 39.6254 12.6337 39.4507 12.4398C39.1654 11.9549 38.7902 11.5328 38.415 11.1763C37.4925 10.0154 36.2076 9.47352 34.5886 9.53912C32.245 9.6361 29.8294 11.2247 28.1128 13.6519C26.6505 15.7169 25.6535 18.0442 25.0419 20.5541C24.3095 23.5689 24.0294 26.5151 24.5099 29.3074C25.0213 32.2793 26.7071 34.3728 29.1535 34.8976C30.7442 35.2399 32.2681 34.9147 33.702 33.925C34.1595 33.6398 36.5262 31.9542 37.143 30.9331C37.125 31.2839 37.1122 31.629 37.1199 31.9684C37.143 33.1293 37.4308 34.0961 38.2069 34.6181C38.8108 35.0231 39.5098 35.1001 40.2627 34.909C41.414 34.6181 42.4445 33.9535 43.1871 32.5645C43.5572 31.8715 43.4595 31.5378 42.9096 31.4693C41.7146 31.3182 41.5502 30.839 41.6041 29.2247C41.6247 28.5915 41.7121 27.9355 41.82 27.2881C42.6449 22.4023 43.4801 17.5166 44.3127 12.628C44.4335 11.915 44.5517 11.1991 44.6802 10.486C44.7213 10.2493 44.6956 10.0896 44.5594 10.0126H44.5645ZM36.4723 27.5875C35.6936 28.928 34.7685 30.0546 33.5684 30.6821C31.9829 31.5121 30.4615 30.8989 29.6855 29.1448C29.0739 27.7615 28.9505 26.1472 29.0713 24.4245C29.1201 23.7229 29.2203 23.0127 29.2692 22.5392C29.7471 19.804 30.4718 17.4139 32.0317 15.3917C34.0387 12.7877 36.4235 12.7022 37.7032 15.1693C38.3945 16.5041 38.5975 18.1241 38.5744 19.8582C38.5358 22.5535 37.8882 25.1461 36.4723 27.5847V27.5875Z" fill="#0099D7"/>
<path d="M118.091 9.70167C116.482 9.28526 115.421 9.69596 114.74 10.312C114.167 10.7627 113.684 11.6269 113.525 11.8779C113.35 12.1545 113.152 12.3228 112.977 12.1288C112.692 11.644 112.317 11.2219 111.942 10.8653C111.019 9.70452 109.734 9.16261 108.115 9.22821C105.771 9.32518 103.356 10.9138 101.639 13.341C100.177 15.406 99.18 17.7333 98.5683 20.2432C97.836 23.2579 97.5558 26.2042 98.0364 28.9965C98.5478 31.9684 100.234 34.0619 102.68 34.5867C104.271 34.9289 105.795 34.6038 107.229 33.6141C107.686 33.3289 110.053 31.6433 110.669 30.6222C110.651 30.973 110.639 31.3181 110.646 31.6575C110.669 32.8184 110.957 33.7852 111.733 34.3072C112.337 34.7122 113.036 34.7892 113.789 34.5981C114.94 34.3072 115.971 33.6426 116.714 32.2536C117.084 31.5606 116.986 31.2269 116.436 31.1584C115.241 31.0072 115.077 30.5281 115.131 28.9138C115.151 28.2806 115.239 27.6246 115.346 26.9771C116.171 22.0914 117.007 17.2057 117.839 12.3171C117.96 11.6041 118.078 10.8882 118.207 10.1751C118.248 9.9384 118.222 9.77868 118.086 9.70167H118.091ZM109.999 27.2766C109.22 28.6171 108.295 29.7437 107.095 30.3712C105.509 31.2012 103.988 30.588 103.212 28.8339C102.6 27.4506 102.477 25.8363 102.598 24.1136C102.647 23.412 102.747 22.7018 102.796 22.2283C103.274 19.4931 103.998 17.103 105.558 15.0808C107.565 12.4768 109.95 12.3912 111.23 14.8584C111.921 16.1932 112.124 17.8132 112.101 19.5473C112.062 22.2426 111.415 24.8352 109.999 27.2738V27.2766Z" fill="#0099D7"/>
<path d="M81.6231 12.1944C84.6683 12.1802 86.0868 16.1162 86.1023 16.1561C86.1562 16.3073 86.2873 16.4071 86.4338 16.4071H86.6239C86.7164 16.4071 86.8038 16.3671 86.8681 16.2958C87.6852 15.4202 88.6386 14.0027 88.8057 12.9588C88.9059 12.3314 88.7594 11.7552 88.3714 11.2447C87.1996 9.70167 84.1184 9.21395 82.8104 9.21965C76.702 9.24532 71.1821 15.0266 69.9743 22.6647C69.4218 26.1557 70.0925 29.4585 71.8117 31.7231C73.2662 33.6369 75.3657 34.6865 77.7247 34.6751C84.234 34.6466 86.9811 28.195 87.0068 28.1294C87.0608 27.9982 87.0454 27.8471 86.9683 27.733L86.8449 27.5476C86.7293 27.3736 86.5109 27.3365 86.3515 27.4649C86.3155 27.4934 82.6742 30.4283 79.8757 30.4397C78.5265 30.4454 77.4266 29.9006 76.6069 28.8225C75.3194 27.1283 74.8774 24.2819 75.3939 21.0133C75.9105 17.7447 77.8044 12.2116 81.6231 12.1944Z" fill="url(#paint0_linear_623_500)"/>
<path d="M61.2164 10.8283C60.8772 10.0268 60.2656 9.69029 59.5974 9.59617C59.546 9.58762 59.4869 9.58476 59.433 9.57906C59.3713 9.57336 59.3096 9.56765 59.2479 9.56765C59.1683 9.56195 59.0963 9.55054 59.0115 9.55054C57.3335 9.55624 54.9692 10.7142 53.2398 12.879C53.3503 12.0005 53.1807 11.2362 52.7412 10.6572C52.2144 9.9641 51.3253 9.58191 50.2383 9.58762C49.6087 9.58762 48.9637 9.7673 48.1927 10.0297C48.0822 10.0668 47.9846 10.1381 47.9486 10.2579C47.9126 10.3805 47.9203 10.4889 47.9871 10.5916C47.9923 10.6087 48.5525 12.5653 46.9926 22.4337C46.7948 23.6801 46.5481 24.9522 46.2885 26.3012C46.0212 27.6788 45.7463 29.102 45.5201 30.5338C45.2734 32.0968 45.3942 33.1749 45.8876 33.8252C46.2705 34.33 46.8693 34.5725 47.7173 34.5696C48.3263 34.5696 48.9919 34.4184 49.6986 34.2616C49.971 34.2017 50.2511 34.1389 50.5312 34.0847C50.6777 34.0562 50.7933 33.9279 50.819 33.7653C50.8345 33.6655 50.8139 33.5628 50.7676 33.4829C50.7137 33.289 50.3102 31.4151 51.6619 22.8786C52.5922 17.0032 54.1469 14.2623 56.5599 14.2509C57.079 14.2509 57.6213 14.4876 58.2637 14.8698C58.2766 14.8784 58.2894 14.8869 58.3023 14.8955C58.8291 15.2007 59.1015 15.5971 59.4895 15.677C61.3886 15.9793 61.9873 12.6423 61.2215 10.8283H61.2164Z" fill="url(#paint1_linear_623_500)"/>
<path d="M25.0597 3.022C25.0597 3.022 25.0468 2.99918 25.0391 2.98777C25.0391 2.98777 25.034 2.98207 25.0314 2.97921C24.9132 2.83375 24.8001 2.71967 24.6948 2.6284C23.1246 1.03405 19.8636 0.178401 17.3786 0.18981C8.17618 0.22974 1.7106 9.88712 0.297213 18.9541C-0.499422 24.0766 0.317771 28.5488 2.59974 31.5464C4.5682 34.1304 7.59541 35.488 11.3576 35.4709C16.2607 35.451 21.2718 31.8515 22.7674 27.2795C22.8086 27.1569 22.7906 27.0171 22.7186 26.9116L22.6261 26.7719C22.567 26.6863 22.4796 26.6293 22.3845 26.615C22.2869 26.5979 22.1918 26.6321 22.1147 26.6977C19.3393 29.1848 16.1862 30.5082 12.9997 30.5196C10.8411 30.5281 9.11416 29.701 7.86781 28.0639C6.02013 25.6367 5.34685 21.4269 6.06639 16.8007C7.47977 7.72519 12.0797 3.64662 16.0115 3.6295C18.5222 3.6181 20.7142 5.14115 22.053 7.76512C22.0582 7.78224 22.0582 7.8022 22.0659 7.82217C22.2226 8.14161 22.3563 8.50668 22.5156 8.82042C22.5362 8.87461 22.5619 8.92025 22.5824 8.97444C22.603 9.03148 22.6415 9.07141 22.6826 9.10849C23.0219 9.62473 23.4998 9.86146 24.4404 9.18264C25.106 8.71774 26.0002 7.69097 25.8872 5.56326C25.8203 4.2912 25.44 3.50401 25.0648 3.022H25.0597Z" fill="url(#paint2_linear_623_500)"/>
<path d="M65.8883 9.41357C65.2587 9.41357 64.6137 9.59326 63.8428 9.85566C63.6757 9.9127 63.5704 10.0981 63.5961 10.2892C63.6038 10.3462 63.6243 10.4004 63.65 10.4489C63.7143 10.6657 64.1332 12.5766 62.6093 22.214C62.4037 23.5089 62.1596 24.8266 61.9103 26.1528C61.661 27.4934 61.4092 28.8396 61.1985 30.1744C60.9955 31.4607 61.1805 32.4903 61.7484 33.2376C62.3163 33.9849 63.2594 34.3956 64.4004 34.3927C64.4287 34.3927 64.4518 34.3813 64.4775 34.3756C64.7422 34.3842 65.0146 34.3613 65.2973 34.29C66.4485 33.9991 67.479 33.3346 68.2217 31.9456C68.5917 31.2525 68.4941 30.9188 67.9442 30.8503C66.7492 30.6992 66.3355 30.2742 66.3894 28.6599C66.4434 28.2092 66.5565 27.2253 66.6233 26.8031C66.87 25.2402 67.2272 23.2322 67.6178 21.0446C68.0778 18.4606 68.5969 15.5343 69.0235 12.8419C69.1597 11.972 68.9875 11.1905 68.5224 10.5801C67.957 9.83569 66.9959 9.41072 65.8858 9.41643L65.8883 9.41357Z" fill="url(#paint3_linear_623_500)"/>
<path d="M70.3808 1.16792C69.9131 0.55186 69.2476 0.215305 68.5075 0.218158C66.9553 0.223862 65.3903 1.82962 65.0922 3.71775C64.938 4.69318 65.1513 5.65151 65.6756 6.34173C66.1407 6.95494 66.7934 7.28864 67.5155 7.28579C69.0882 7.28008 70.6661 5.69714 70.9616 3.83183C71.1184 2.83358 70.9076 1.861 70.3808 1.16792Z" fill="url(#paint4_linear_623_500)"/>
<path d="M93.7215 9.29663C93.0919 9.29663 92.4469 9.47632 91.676 9.73872C91.5089 9.79576 91.4036 9.98115 91.4293 10.1722C91.437 10.2293 91.4575 10.2835 91.4832 10.332C91.5475 10.5487 91.9664 12.4597 90.4425 22.0971C90.2369 23.392 89.9928 24.7097 89.7435 26.0359C89.4942 27.3764 89.2424 28.7226 89.0317 30.0574C88.8286 31.3438 89.0137 32.3734 89.5816 33.1206C90.1495 33.8679 91.0926 34.2786 92.2336 34.2758C92.2619 34.2758 92.285 34.2644 92.3107 34.2587C92.5754 34.2672 92.8478 34.2444 93.133 34.1731C94.2843 33.8822 95.3148 33.2176 96.0575 31.8286C96.4275 31.1356 96.3299 30.8019 95.7799 30.7334C94.585 30.5822 94.1712 30.1573 94.2252 28.5429C94.2792 28.0923 94.3922 27.1083 94.459 26.6862C94.7057 25.1232 95.0629 23.1153 95.4536 20.9277C95.9135 18.3437 96.4326 15.4173 96.8592 12.7249C96.9954 11.855 96.8233 11.0735 96.3581 10.4632C95.7928 9.71875 94.8317 9.29378 93.7215 9.29948V9.29663Z" fill="url(#paint5_linear_623_500)"/>
<path d="M98.2161 1.0511C97.7484 0.435038 97.0828 0.0984842 96.3427 0.101336C94.7906 0.107041 93.2256 1.7128 92.9275 3.60093C92.7733 4.57636 92.9866 5.53468 93.5108 6.22491C93.9759 6.83812 94.6287 7.17182 95.3508 7.16897C96.9235 7.16326 98.5013 5.58032 98.7969 3.71501C98.9536 2.71676 98.7429 1.74418 98.2161 1.0511Z" fill="url(#paint6_linear_623_500)"/>
<path d="M44.5645 10.0126C42.9559 9.59617 41.8945 10.0069 41.2135 10.6229C40.6405 11.0736 40.1574 11.9378 39.998 12.1888C39.8233 12.4654 39.6254 12.6337 39.4507 12.4398C39.1654 11.9549 38.7902 11.5328 38.415 11.1763C37.4925 10.0154 36.2076 9.47352 34.5886 9.53912C32.245 9.6361 29.8294 11.2247 28.1128 13.6519C26.6505 15.7169 25.6535 18.0442 25.0419 20.5541C24.3095 23.5689 24.0294 26.5151 24.5099 29.3074C25.0213 32.2793 26.7071 34.3728 29.1535 34.8976C30.7442 35.2399 32.2681 34.9147 33.702 33.925C34.1595 33.6398 36.5262 31.9542 37.143 30.9331C37.125 31.2839 37.1122 31.629 37.1199 31.9684C37.143 33.1293 37.4308 34.0961 38.2069 34.6181C38.8108 35.0231 39.5098 35.1001 40.2627 34.909C41.414 34.6181 42.4445 33.9535 43.1871 32.5645C43.5572 31.8715 43.4595 31.5378 42.9096 31.4693C41.7146 31.3182 41.5502 30.839 41.6041 29.2247C41.6247 28.5915 41.7121 27.9355 41.82 27.2881C42.6449 22.4023 43.4801 17.5166 44.3127 12.628C44.4335 11.915 44.5517 11.1991 44.6802 10.486C44.7213 10.2493 44.6956 10.0896 44.5594 10.0126H44.5645ZM36.4723 27.5875C35.6936 28.928 34.7685 30.0546 33.5684 30.6821C31.9829 31.5121 30.4615 30.8989 29.6855 29.1448C29.0739 27.7615 28.9505 26.1472 29.0713 24.4245C29.1201 23.7229 29.2203 23.0127 29.2692 22.5392C29.7471 19.804 30.4718 17.4139 32.0317 15.3917C34.0387 12.7877 36.4235 12.7022 37.7032 15.1693C38.3945 16.5041 38.5975 18.1241 38.5744 19.8582C38.5358 22.5535 37.8882 25.1461 36.4723 27.5847V27.5875Z" fill="url(#paint7_linear_623_500)"/>
<path d="M118.091 9.70167C116.482 9.28526 115.421 9.69596 114.74 10.312C114.167 10.7627 113.684 11.6269 113.525 11.8779C113.35 12.1545 113.152 12.3228 112.977 12.1288C112.692 11.644 112.317 11.2219 111.942 10.8653C111.019 9.70452 109.734 9.16261 108.115 9.22821C105.771 9.32518 103.356 10.9138 101.639 13.341C100.177 15.406 99.18 17.7333 98.5683 20.2432C97.836 23.2579 97.5558 26.2042 98.0364 28.9965C98.5478 31.9684 100.234 34.0619 102.68 34.5867C104.271 34.9289 105.795 34.6038 107.229 33.6141C107.686 33.3289 110.053 31.6433 110.669 30.6222C110.651 30.973 110.639 31.3181 110.646 31.6575C110.669 32.8184 110.957 33.7852 111.733 34.3072C112.337 34.7122 113.036 34.7892 113.789 34.5981C114.94 34.3072 115.971 33.6426 116.714 32.2536C117.084 31.5606 116.986 31.2269 116.436 31.1584C115.241 31.0072 115.077 30.5281 115.131 28.9138C115.151 28.2806 115.239 27.6246 115.346 26.9771C116.171 22.0914 117.007 17.2057 117.839 12.3171C117.96 11.6041 118.078 10.8882 118.207 10.1751C118.248 9.9384 118.222 9.77868 118.086 9.70167H118.091ZM109.999 27.2766C109.22 28.6171 108.295 29.7437 107.095 30.3712C105.509 31.2012 103.988 30.588 103.212 28.8339C102.6 27.4506 102.477 25.8363 102.598 24.1136C102.647 23.412 102.747 22.7018 102.796 22.2283C103.274 19.4931 103.998 17.103 105.558 15.0808C107.565 12.4768 109.95 12.3912 111.23 14.8584C111.921 16.1932 112.124 17.8132 112.101 19.5473C112.062 22.2426 111.415 24.8352 109.999 27.2738V27.2766Z" fill="url(#paint8_linear_623_500)"/>
<defs>
<linearGradient id="paint0_linear_623_500" x1="79.3697" y1="34.6701" x2="79.2613" y2="9.23491" gradientUnits="userSpaceOnUse">
<stop stop-color="#0056B4"/>
<stop offset="1" stop-color="#0056B4" stop-opacity="0.2"/>
</linearGradient>
<linearGradient id="paint1_linear_623_500" x1="53.517" y1="34.5493" x2="53.4106" y2="9.57899" gradientUnits="userSpaceOnUse">
<stop stop-color="#0056B4"/>
<stop offset="1" stop-color="#0056B4" stop-opacity="0.2"/>
</linearGradient>
<linearGradient id="paint2_linear_623_500" x1="13.0254" y1="35.4692" x2="12.8751" y2="0.214106" gradientUnits="userSpaceOnUse">
<stop stop-color="#0056B4"/>
<stop offset="1" stop-color="#0056B4" stop-opacity="0.2"/>
</linearGradient>
<linearGradient id="paint3_linear_623_500" x1="65.1423" y1="34.3913" x2="65.0359" y2="9.421" gradientUnits="userSpaceOnUse">
<stop stop-color="#0056B4"/>
<stop offset="1" stop-color="#0056B4" stop-opacity="0.2"/>
</linearGradient>
<linearGradient id="paint4_linear_623_500" x1="68.0454" y1="7.28894" x2="68.0153" y2="0.224234" gradientUnits="userSpaceOnUse">
<stop stop-color="#0056B4"/>
<stop offset="1" stop-color="#0056B4" stop-opacity="0.2"/>
</linearGradient>
<linearGradient id="paint5_linear_623_500" x1="92.9778" y1="34.2727" x2="92.8714" y2="9.30237" gradientUnits="userSpaceOnUse">
<stop stop-color="#0056B4"/>
<stop offset="1" stop-color="#0056B4" stop-opacity="0.2"/>
</linearGradient>
<linearGradient id="paint6_linear_623_500" x1="95.8805" y1="7.17043" x2="95.8504" y2="0.105725" gradientUnits="userSpaceOnUse">
<stop stop-color="#0056B4"/>
<stop offset="1" stop-color="#0056B4" stop-opacity="0.2"/>
</linearGradient>
<linearGradient id="paint7_linear_623_500" x1="34.5513" y1="35.0351" x2="34.4426" y2="9.54288" gradientUnits="userSpaceOnUse">
<stop stop-color="#0056B4"/>
<stop offset="1" stop-color="#0056B4" stop-opacity="0.2"/>
</linearGradient>
<linearGradient id="paint8_linear_623_500" x1="108.08" y1="34.7218" x2="107.971" y2="9.2295" gradientUnits="userSpaceOnUse">
<stop stop-color="#0056B4"/>
<stop offset="1" stop-color="#0056B4" stop-opacity="0.2"/>
</linearGradient>
</defs>
</svg>
