<svg width="490" height="287" viewBox="0 0 490 287" fill="none" xmlns="http://www.w3.org/2000/svg">
<path d="M462.724 75.2784L454.407 72.8144C448.157 70.9587 442.776 71.3249 441.274 71.48C436.464 71.9765 431.983 73.615 428.253 76.2404C426.013 74.7819 422.481 73.4164 417.429 73.9378C415.803 74.1054 414.214 74.4529 412.7 74.9743L412.836 74.1798L369.465 78.6485L369.137 80.5601L340.494 51.9172L333.002 47.8209L332.692 47.6533H332.686C328.503 45.4687 322.83 44.5563 317.058 45.1521C314.848 45.3756 311.422 46.0583 307.55 48.0009L274.711 51.3896L274.556 55.2873C270.46 52.7985 263.999 50.62 254.41 51.6069C253.063 51.7434 251.729 51.9358 250.413 52.1779L250.475 51.8117L231.657 32.9936L222.248 33.9619L223.477 26.8865L196.59 0L165.254 3.21496L164.894 5.2693L130.584 8.80699L120.809 65.3791C112.25 66.3721 97.3921 70.1456 86.7169 83.8557C86.5804 83.7254 86.45 83.5951 86.3135 83.4709C85.879 83.0055 85.4322 82.5586 84.9667 82.1241C84.5322 81.6587 84.0854 81.2118 83.6199 80.7773C83.1047 80.2249 82.5772 79.6912 82.0248 79.1885C75.5453 73.3358 66.6079 70.9463 55.4673 72.1007C48.2243 72.8517 35.5693 75.5204 23.7584 80.5849L18.5946 82.7944L0 190.452L26.8865 217.338L41.8006 215.799C41.7634 216.923 41.7386 218.058 41.7386 219.207C41.7386 232.52 45.7976 243.344 53.4626 250.587C53.8971 251.046 54.3439 251.493 54.8094 251.933C55.2439 252.393 55.6907 252.84 56.1562 253.28C56.5907 253.739 57.0375 254.186 57.503 254.627C57.9375 255.086 58.3843 255.533 58.8498 255.974C59.2843 256.433 59.7311 256.88 60.1966 257.321C60.6311 257.78 61.078 258.227 61.5434 258.667C61.9779 259.127 62.4248 259.574 62.8902 260.014C63.3247 260.474 63.7716 260.92 64.2371 261.361C64.6715 261.82 65.1184 262.267 65.5839 262.708C66.0183 263.167 66.4652 263.614 66.9307 264.055C67.3651 264.514 67.812 264.961 68.2775 265.401C68.7119 265.861 69.1588 266.308 69.6243 266.748C70.0587 267.208 70.5056 267.654 70.9711 268.095C71.4055 268.554 71.8524 269.001 72.3179 269.442C72.7523 269.901 73.1992 270.348 73.6647 270.789C74.0992 271.248 74.546 271.695 75.0115 272.135C75.446 272.595 75.8928 273.042 76.3583 273.482C76.7928 273.942 77.2396 274.388 77.7051 274.829C78.1396 275.288 78.5864 275.735 79.0519 276.176C79.6602 276.815 80.2808 277.442 80.9325 278.038C87.4245 283.903 96.2128 287 106.329 287C108.129 287 109.997 286.901 111.884 286.708C123.509 285.51 133.7 281.309 143.866 273.513C143.941 273.588 144.021 273.662 144.096 273.737C144.592 274.271 145.095 274.779 145.61 275.245C149.253 278.534 156.031 282.513 166.799 281.433C170.877 281.011 174.725 279.987 178.231 278.385L241.575 271.856L242.425 267.003L246.85 271.31L288.893 266.978L290.829 255.75C291.189 256.129 291.568 256.489 291.947 256.843C292.48 257.414 293.026 257.972 293.597 258.487C297.421 261.938 304.235 266.047 315.041 266.047C316.605 266.047 318.2 265.96 319.789 265.799C325.846 265.178 331.643 263.713 337.049 261.442L336.95 262.038L378.992 257.705L380.47 249.153C380.55 249.227 380.625 249.302 380.705 249.376C381.196 249.904 381.692 250.407 382.22 250.878C385.441 253.789 391.107 257.252 399.803 257.252C401.013 257.252 402.229 257.19 403.402 257.066C407.499 256.644 411.341 255.62 414.835 254.019L447.785 250.624L457.455 181.285L459.025 172.292L433.988 147.243L467.298 143.81L484.143 142.073L489.641 102.227L462.755 75.3404L462.724 75.2784ZM170.84 164.205C170.908 164.124 170.976 164.043 171.044 163.963C171.137 164.062 171.243 164.149 171.336 164.248C171.168 164.236 171.001 164.217 170.84 164.205Z" fill="#FF6C99"/>
<g opacity="0.2">
<path d="M108.167 222.515C100.918 228.808 94.9905 231.998 89.5164 232.563C80.6721 233.475 76.191 227.728 76.191 215.489C76.191 196.845 84.3029 183.476 96.3807 182.235C102.469 181.608 107.043 184.264 110.774 190.589L111.04 191.042L127.401 179.2L127.171 178.79C120.679 167.184 110.823 161.977 97.8765 163.305C76.0855 165.552 52.7988 181.794 52.7988 220.64C52.7988 242.071 64.9387 253.609 85.2711 251.518C96.7966 250.332 106.634 245.628 117.172 236.262L117.539 235.939L108.632 222.105L108.167 222.508V222.515Z" fill="black"/>
<path d="M161.152 175.389C136.345 177.946 120.313 197.192 120.313 224.426C120.313 239.595 127.556 247.546 140.18 246.242C147.423 245.497 153.177 242.382 157.751 236.728V242.555L176.364 240.638L177.27 226.605L185.624 178.474L185.699 178.045L185.302 177.927C176.029 175.172 166.744 174.812 161.146 175.389H161.152ZM149.043 229.429C144.314 229.919 142.204 226.946 142.204 219.803C142.204 209.438 146.263 192.581 157.155 191.458C159.067 191.259 160.873 191.364 162.182 191.737L157.025 221.882C155.802 226.288 152.891 229.038 149.043 229.435V229.429Z" fill="black"/>
<path d="M233.705 189.031L240.029 170.064L239.681 169.878C237.23 168.537 233.295 167.954 229.41 168.357C226.455 168.661 219.225 170.368 213.515 179.535L213.192 171.895L195.46 173.719L194.945 186.312L185.729 239.669L207.637 237.41L214.7 197.192C215.743 191.65 219.56 188.007 224.916 187.454C228.293 187.107 231.265 187.988 233.158 188.789L233.698 189.018L233.705 189.031Z" fill="black"/>
<path d="M233.035 234.804L254.944 232.551L266.358 166.421L244.449 168.68L233.035 234.804Z" fill="black"/>
<path d="M256.618 160.611C264.259 159.823 270.248 153.765 270.248 146.827C270.248 141.39 266.04 137.877 260.237 138.473C252.665 139.255 246.731 145.411 246.731 152.493C246.731 158.042 250.61 161.232 256.618 160.611Z" fill="black"/>
<path d="M312.745 206.285C307.122 210.487 303.324 212.286 299.178 212.715C291.258 213.528 289.595 206.93 289.595 201.251C289.595 188.354 295.199 179.107 303.547 178.25C307.811 177.81 310.294 180.342 312.702 184.283L312.981 184.736L327.796 173.422L327.61 173.031C323.371 164.068 314.551 159.587 303.417 160.735C285.449 162.585 267.326 177.195 267.326 205.664C267.326 223.21 276.754 232.302 293.189 230.608C302.703 229.627 311.392 226.195 318.325 220.684L318.654 220.423L313.31 205.869L312.751 206.285H312.745Z" fill="black"/>
<path d="M346.725 151.333C354.365 150.544 360.354 144.487 360.354 137.548C360.354 132.111 356.146 128.598 350.343 129.194C342.771 129.976 336.838 136.133 336.838 143.215C336.838 148.763 340.717 151.953 346.725 151.333Z" fill="black"/>
<path d="M323.135 225.525L345.044 223.266L356.464 157.142L334.555 159.395L323.135 225.525Z" fill="black"/>
<path d="M421.923 153.555C412.65 150.799 403.366 150.439 397.767 151.016C372.96 153.573 356.929 172.82 356.929 200.054C356.929 215.222 364.172 223.173 376.796 221.869C384.039 221.125 389.792 218.009 394.366 212.355V218.183L412.979 216.265L413.886 202.232L422.239 154.101L422.314 153.673L421.917 153.555H421.923ZM385.658 205.05C380.929 205.54 378.819 202.567 378.819 195.424C378.819 185.059 382.878 168.202 393.77 167.079C395.682 166.88 397.488 166.985 398.798 167.358L393.64 197.503C392.417 201.909 389.507 204.659 385.658 205.056V205.05Z" fill="black"/>
<path d="M57.7957 83.2474C51.2354 83.9239 39.741 86.3569 28.9293 90.9869L28.6314 91.1172L13.1152 180.882L35.0241 178.622L39.6045 152.158C41.8823 152.828 45.4138 153.343 49.1873 152.952C70.0535 150.805 83.5339 132.794 83.5339 107.08C83.5339 89.7518 74.6339 81.5158 57.8019 83.2474H57.7957ZM48.3991 101.47C49.839 100.799 52.2533 100.216 54.6738 99.9677C59.49 99.4712 61.6375 102.512 61.6375 109.83C61.6375 121.79 57.9508 136.139 47.5612 137.213C45.9847 137.374 44.1663 137.238 42.2919 136.809L48.4053 101.47H48.3991Z" fill="black"/>
<path d="M123.815 76.445C112.097 77.649 91.6837 84.0603 86.6068 113.411C85.9303 117.284 85.8496 121.132 85.8496 123.689C85.8496 139.888 94.8676 148.248 110.589 146.628C130.977 144.53 144.681 130.448 148.175 107.986C148.597 105.082 148.802 101.972 148.802 98.4842C148.802 76.2712 131.324 75.6754 123.815 76.445ZM125.044 111.692C122.983 123.782 119.489 129.43 113.704 130.025C109.993 130.41 108.112 127.419 108.112 121.144C108.112 117.737 108.528 113.436 109.229 109.643C111.11 99.0552 114.84 93.3949 120.32 92.8301C124.113 92.4391 126.037 95.3002 126.037 101.327C126.037 103.598 125.863 107.242 125.044 111.692Z" fill="black"/>
<path d="M199.625 47.6719L195.777 69.6614C194.387 69.4877 192.159 69.407 189.707 69.6614C166.476 72.0571 150.867 91.6758 150.867 118.494C150.867 125.706 152.915 142.271 171.857 140.322C178.647 139.621 184.27 136.406 188.584 130.764L188.826 136.58L207.172 134.687L208.072 120.555L221.162 45.4562L199.625 47.6719ZM179.225 123.534C174.899 123.981 172.888 120.946 172.888 113.976C172.888 100.942 178.318 87.232 190.458 85.9845C191.259 85.9038 192.06 85.9038 192.966 85.91L187.696 116.241C187.212 119.444 183.91 123.05 179.231 123.534H179.225Z" fill="black"/>
<path d="M265.817 108.936C259.853 113.026 254.633 115.26 249.861 115.751C246.59 116.086 244.064 115.459 242.344 113.876C240.768 112.43 239.93 110.208 239.899 107.434C264.495 103.189 276.97 93.1281 276.97 77.5374C276.97 66.8126 269.591 61.4254 256.725 62.7474C231.496 65.3479 217.885 88.6904 217.885 109.333C217.885 126.252 227.201 134.606 244.12 132.868C256.731 131.571 266.798 125.842 270.752 122.665L271.068 122.41L266.376 108.551L265.811 108.936H265.817ZM241.308 93.6184C242.357 89.578 245.733 79.66 253.727 78.8345C255.502 78.6546 257.569 79.3497 257.569 81.9068C257.569 88.045 248.297 92.3523 241.308 93.6184Z" fill="black"/>
<path d="M329.639 57.8194C327.188 56.4788 323.253 55.8954 319.367 56.2988C316.413 56.6029 309.183 58.3097 303.473 67.4767L303.15 59.8365L285.418 61.6612L284.909 74.2542L275.692 127.611L297.601 125.352L304.664 85.1341C305.707 79.5917 309.524 75.9485 314.88 75.3962C318.263 75.0486 321.229 75.9299 323.122 76.7305L323.662 76.9602L329.987 57.9932L329.639 57.807V57.8194Z" fill="black"/>
<path d="M334.938 94.1025L336.452 85.463L344.446 84.6376L339.375 113.734L339.034 119.084L332.257 119.785L332.157 117.457L331.915 117.482C330.351 119.592 328.21 120.983 325.43 121.268C319.136 121.914 317.436 117.315 317.436 112.927C317.436 103.127 322.897 95.052 332.406 94.0776C333.43 93.9721 334.404 94.0156 334.944 94.1087L334.938 94.1025ZM333.914 100.011C333.473 100.011 333.088 99.9986 332.697 100.036C327.627 100.557 325.628 106.273 325.628 111.201C325.628 113.783 326.36 115.322 328.309 115.118C330.308 114.913 331.624 113.361 331.822 112.07L333.92 100.005L333.914 100.011Z" fill="black"/>
<path d="M366.299 96.9699C366.299 105.162 357.033 107.577 351.82 108.458C351.77 110.655 352.943 112.387 355.916 112.083C358.256 111.841 360.502 110.587 362.253 109.383L363.959 114.423C362.985 115.205 359.131 117.799 353.669 118.357C346.55 119.09 343.627 115.099 343.627 109.346C343.627 101.054 349.138 92.3461 358.597 91.3716C363.376 90.8813 366.299 92.7743 366.299 96.9637V96.9699ZM357.424 97.2492C354.55 97.5471 352.937 100.781 352.304 103.48C355.134 103.04 359.131 101.265 359.131 98.6332C359.131 97.5595 358.299 97.1561 357.424 97.2492Z" fill="black"/>
<path d="M402.384 86.6299L398.604 108.806L398.238 113.932L390.89 114.689V112.12L390.573 112.101C388.215 114.919 385.639 115.918 383.225 116.166C378.185 116.688 375.715 114.683 375.715 110.115C375.715 109.327 375.82 108.266 375.976 107.304L379.128 89.0256L387.898 88.1194L384.907 105.33C384.801 106.075 384.696 106.77 384.696 107.347C384.696 108.557 385.118 109.352 386.793 109.178C388.631 108.992 390.257 107.297 390.623 105.107L393.614 87.5298L402.384 86.6237V86.6299Z" fill="black"/>
<path d="M401.409 112.66L404.922 92.3584L405.214 87.3063L411.942 86.6112L412.041 89.28C413.94 86.9898 416.478 85.4071 419.743 85.072C423.79 84.6561 426.229 86.2574 426.279 90.4468C426.279 91.2288 426.179 92.2094 426.036 93.1528L423.014 110.432L414.871 111.27L417.409 96.4298C417.558 95.6354 417.8 94.4872 417.8 93.5624C417.8 92.588 417.409 91.5577 415.945 91.7067C413.847 91.9239 412.63 93.6121 412.289 95.6913L409.509 111.822L401.415 112.654L401.409 112.66Z" fill="black"/>
<path d="M449.682 102.419L449.34 107.72L442.464 108.427V106.137L442.222 106.112C440.515 108.284 438.318 109.588 435.394 109.886C430.175 110.426 427.835 106.813 427.835 101.544C427.835 91.5454 433.396 83.6632 443.587 82.6143C445.635 82.4033 449.291 82.515 452.946 83.6011L449.682 102.419ZM444.22 88.647C443.68 88.4546 442.904 88.3925 442.023 88.4856C437.585 88.9449 435.978 95.7907 435.978 99.7876C435.978 102.127 436.512 103.977 438.851 103.735C440.509 103.561 441.682 102.37 442.166 100.613L444.214 88.6532L444.22 88.647Z" fill="black"/>
<path d="M140.248 19.1905L169.406 16.1865L167.593 26.4272L150.029 28.2395L148.825 35.2032L163.907 33.6516L162.163 43.7495L147.081 45.3011L145.672 53.1523L163.77 51.2904L162.026 61.5248L132.396 64.5784L140.235 19.1967L140.248 19.1905Z" fill="black"/>
<path d="M179.795 49.7698C179.795 49.1615 179.857 48.3547 179.994 47.5354L186.095 12.4502L174.905 13.5984L168.804 48.6836C168.531 50.3904 168.332 52.0227 168.332 53.4936C168.394 58.6512 170.479 61.7172 177.586 60.9911C179.435 60.7987 181.769 60.2277 183.898 59.4022L185.425 50.6573C184.115 51.2655 182.973 51.6565 182.141 51.7434C180.596 51.8986 179.857 51.371 179.795 49.776V49.7698Z" fill="black"/>
</g>
<path d="M106.852 221.068C99.6032 227.362 93.676 230.552 88.2019 231.117C79.3577 232.029 74.8766 226.282 74.8766 214.043C74.8766 195.398 82.9885 182.03 95.0663 180.788C101.155 180.161 105.729 182.818 109.459 189.142L109.726 189.595L126.086 177.753L125.857 177.344C119.365 165.738 109.509 160.53 96.562 161.859C74.7711 164.105 51.4844 180.348 51.4844 219.194C51.4844 240.625 63.6243 252.163 83.9567 250.071C95.4821 248.886 105.319 244.181 115.858 234.816L116.224 234.493L107.318 220.659L106.852 221.062V221.068Z" fill="white"/>
<path d="M159.837 173.943C135.029 176.5 118.998 195.746 118.998 222.98C118.998 238.149 126.241 246.099 138.865 244.796C146.108 244.051 151.861 240.935 156.436 235.281V241.109L175.049 239.191L175.955 225.158L184.309 177.027L184.383 176.599L183.986 176.481C174.714 173.725 165.429 173.365 159.83 173.943H159.837ZM147.728 227.982C142.999 228.473 140.888 225.5 140.888 218.356C140.888 207.991 144.947 191.135 155.84 190.011C157.751 189.813 159.557 189.918 160.867 190.29L155.709 220.435C154.487 224.842 151.576 227.591 147.728 227.989V227.982Z" fill="white"/>
<path d="M232.39 187.584L238.715 168.617L238.367 168.431C235.915 167.09 231.981 166.507 228.095 166.91C225.141 167.214 217.91 168.921 212.2 178.088L211.878 170.448L194.146 172.273L193.631 184.866L184.414 238.223L206.323 235.964L213.386 195.746C214.429 190.203 218.246 186.56 223.602 186.008C226.978 185.66 229.951 186.541 231.844 187.342L232.384 187.572L232.39 187.584Z" fill="white"/>
<path d="M231.721 233.357L253.63 231.104L265.043 164.974L243.134 167.233L231.721 233.357Z" fill="white"/>
<path d="M255.305 159.165C262.945 158.377 268.934 152.319 268.934 145.38C268.934 139.943 264.726 136.431 258.923 137.026C251.351 137.808 245.418 143.965 245.418 151.047C245.418 156.595 249.297 159.786 255.305 159.165Z" fill="white"/>
<path d="M311.431 204.832C305.808 209.034 302.009 210.834 297.863 211.262C289.944 212.075 288.281 205.478 288.281 199.799C288.281 186.902 293.885 177.654 302.233 176.797C306.497 176.357 308.979 178.889 311.387 182.83L311.667 183.283L326.481 171.969L326.295 171.578C322.056 162.616 313.237 158.135 302.102 159.283C284.135 161.132 266.012 175.742 266.012 204.211C266.012 221.757 275.439 230.85 291.874 229.155C301.389 228.175 310.078 224.742 317.01 219.231L317.339 218.97L311.996 204.416L311.437 204.832H311.431Z" fill="white"/>
<path d="M345.41 149.886C353.051 149.098 359.04 143.04 359.04 136.102C359.04 130.665 354.832 127.152 349.029 127.748C341.457 128.53 335.523 134.687 335.523 141.768C335.523 147.317 339.403 150.507 345.41 149.886Z" fill="white"/>
<path d="M321.819 224.078L343.728 221.819L355.148 155.695L333.239 157.948L321.819 224.078Z" fill="white"/>
<path d="M420.608 152.108C411.335 149.352 402.05 148.992 396.452 149.57C371.645 152.127 355.613 171.373 355.613 198.607C355.613 213.776 362.856 221.726 375.48 220.423C382.723 219.678 388.477 216.562 393.051 210.908V216.736L411.664 214.818L412.57 200.786L420.924 152.654L420.999 152.226L420.601 152.108H420.608ZM384.343 203.603C379.614 204.094 377.504 201.121 377.504 193.977C377.504 183.612 381.563 166.755 392.455 165.632C394.367 165.433 396.173 165.539 397.482 165.911L392.325 196.056C391.102 200.463 388.191 203.212 384.343 203.609V203.603Z" fill="white"/>
<path d="M56.4783 81.8015C49.918 82.478 38.4236 84.911 27.612 89.541L27.314 89.6713L11.7979 179.436L33.7067 177.176L38.2871 150.712C40.5649 151.382 44.0964 151.897 47.8699 151.506C68.7361 149.359 82.2166 131.348 82.2166 105.634C82.2166 88.3059 73.3165 80.0699 56.4845 81.8015H56.4783ZM47.0817 100.024C48.5216 99.3534 50.9359 98.77 53.3564 98.5218C58.1727 98.0252 60.3201 101.066 60.3201 108.384C60.3201 120.344 56.6335 134.693 46.2438 135.767C44.6674 135.928 42.8489 135.792 40.9745 135.363L47.0879 100.024H47.0817Z" fill="white"/>
<path d="M122.497 74.9992C110.779 76.2032 90.3663 82.6145 85.2894 111.965C84.6129 115.838 84.5322 119.686 84.5322 122.243C84.5322 138.442 93.5502 146.802 109.271 145.182C129.66 143.084 143.363 129.002 146.858 106.54C147.28 103.636 147.485 100.526 147.485 97.0384C147.485 74.8254 130.007 74.2296 122.497 74.9992ZM123.726 110.246C121.666 122.336 118.171 127.984 112.387 128.58C108.675 128.964 106.795 125.973 106.795 119.698C106.795 116.291 107.211 111.99 107.912 108.198C109.793 97.6094 113.523 91.9491 119.003 91.3843C122.795 90.9933 124.719 93.8544 124.719 99.8809C124.719 102.153 124.545 105.796 123.726 110.246Z" fill="white"/>
<path d="M198.309 46.2197L194.461 68.2093C193.071 68.0355 190.842 67.9548 188.391 68.2093C165.16 70.605 149.551 90.2237 149.551 117.042C149.551 124.254 151.599 140.819 170.541 138.87C177.331 138.169 182.954 134.954 187.268 129.312L187.51 135.128L205.856 133.235L206.756 119.102L219.845 44.004L198.309 46.2197ZM177.908 122.082C173.582 122.528 171.571 119.493 171.571 112.524C171.571 99.49 177.002 85.7798 189.142 84.5323C189.943 84.4517 190.743 84.4517 191.649 84.4579L186.38 114.789C185.896 117.991 182.594 121.597 177.914 122.082H177.908Z" fill="white"/>
<path d="M264.5 107.49C258.536 111.58 253.316 113.814 248.543 114.305C245.272 114.64 242.746 114.013 241.027 112.43C239.451 110.984 238.613 108.762 238.582 105.988C263.178 101.743 275.653 91.6821 275.653 76.0915C275.653 65.3667 268.274 59.9794 255.408 61.3014C230.178 63.9019 216.567 87.2445 216.567 107.887C216.567 124.806 225.883 133.16 242.802 131.422C255.414 130.125 265.481 124.397 269.434 121.219L269.751 120.964L265.059 107.105L264.494 107.49H264.5ZM239.991 92.1725C241.04 88.132 244.416 78.2141 252.41 77.3886C254.185 77.2086 256.252 77.9038 256.252 80.4608C256.252 86.599 246.979 90.9063 239.991 92.1725Z" fill="white"/>
<path d="M328.322 56.3735C325.87 55.0329 321.935 54.4495 318.05 54.8529C315.096 55.157 307.865 56.8638 302.155 66.0308L301.832 58.3906L284.101 60.2153L283.592 72.8082L274.375 126.165L296.284 123.906L303.347 83.6882C304.39 78.1458 308.207 74.5026 313.563 73.9502C316.945 73.6027 319.912 74.484 321.805 75.2846L322.345 75.5143L328.669 56.5473L328.322 56.3611V56.3735Z" fill="white"/>
<path d="M333.629 92.6565L335.144 84.0171L343.138 83.1917L338.067 112.288L337.726 117.638L330.948 118.339L330.849 116.012L330.607 116.036C329.043 118.147 326.901 119.537 324.121 119.822C317.828 120.468 316.127 115.869 316.127 111.481C316.127 101.681 321.589 93.6061 331.097 92.6317C332.121 92.5262 333.095 92.5696 333.635 92.6627L333.629 92.6565ZM332.605 98.5651C332.165 98.5651 331.78 98.5527 331.389 98.5899C326.318 99.1113 324.319 104.827 324.319 109.755C324.319 112.337 325.052 113.876 327.001 113.672C328.95 113.467 330.315 111.915 330.514 110.624L332.611 98.5589L332.605 98.5651Z" fill="#FFF0B0"/>
<path d="M364.985 95.524C364.985 103.717 355.719 106.131 350.505 107.012C350.455 109.209 351.628 110.941 354.601 110.637C356.941 110.395 359.188 109.141 360.938 107.937L362.645 112.977C361.671 113.759 357.816 116.353 352.355 116.911C345.236 117.644 342.312 113.653 342.312 107.9C342.312 99.6078 347.824 90.9001 357.283 89.9257C362.062 89.4354 364.985 91.3284 364.985 95.5178V95.524ZM356.11 95.8033C353.236 96.1012 351.622 99.3347 350.989 102.035C353.819 101.594 357.816 99.8188 357.816 97.1873C357.816 96.1136 356.985 95.7102 356.11 95.8033Z" fill="#FFF0B0"/>
<path d="M401.069 85.1839L397.289 107.36L396.923 112.486L389.574 113.243V110.674L389.258 110.655C386.899 113.473 384.324 114.472 381.909 114.721C376.87 115.242 374.399 113.237 374.399 108.669C374.399 107.881 374.505 106.82 374.66 105.858L377.813 87.5796L386.583 86.6735L383.591 103.884C383.486 104.629 383.38 105.324 383.38 105.901C383.38 107.111 383.802 107.906 385.478 107.732C387.315 107.546 388.941 105.852 389.307 103.661L392.299 86.0839L401.069 85.1777V85.1839Z" fill="#FFF0B0"/>
<path d="M400.095 111.214L403.608 90.9126L403.899 85.8605L410.627 85.1654L410.726 87.8342C412.626 85.544 415.164 83.9613 418.429 83.6262C422.475 83.2103 424.914 84.8116 424.964 89.001C424.964 89.783 424.865 90.7636 424.722 91.707L421.699 108.986L413.557 109.824L416.095 94.984C416.244 94.1896 416.486 93.0414 416.486 92.1166C416.486 91.1422 416.095 90.1119 414.63 90.2609C412.532 90.4781 411.316 92.1663 410.975 94.2455L408.194 110.376L400.101 111.208L400.095 111.214Z" fill="#FFF0B0"/>
<path d="M448.368 100.973L448.027 106.274L441.15 106.981V104.691L440.908 104.666C439.201 106.838 437.004 108.142 434.081 108.44C428.861 108.98 426.521 105.367 426.521 100.098C426.521 90.0995 432.082 82.2173 442.274 81.1684C444.322 80.9574 447.977 81.0691 451.633 82.1552L448.368 100.973ZM442.907 87.2011C442.367 87.0087 441.591 86.9466 440.71 87.0397C436.272 87.499 434.664 94.3447 434.664 98.3417C434.664 100.682 435.198 102.531 437.538 102.289C439.195 102.115 440.368 100.924 440.852 99.1672L442.9 87.2073L442.907 87.2011Z" fill="#FFF0B0"/>
<path d="M138.933 17.7444L168.091 14.7405L166.279 24.9812L148.715 26.7935L147.511 33.7571L162.592 32.2055L160.848 42.3034L145.767 43.8551L144.358 51.7063L162.456 49.8443L160.712 60.0788L131.082 63.1324L138.921 17.7506L138.933 17.7444Z" fill="#FFF0B0"/>
<path d="M178.481 48.3238C178.481 47.7156 178.543 46.9088 178.68 46.0895L184.781 11.0043L173.59 12.1525L167.489 47.2377C167.216 48.9445 167.018 50.5768 167.018 52.0477C167.08 57.2053 169.165 60.2713 176.271 59.5452C178.121 59.3527 180.455 58.7817 182.583 57.9563L184.11 49.2114C182.801 49.8196 181.659 50.2106 180.827 50.2975C179.282 50.4527 178.543 49.9251 178.481 48.33V48.3238Z" fill="#FFF0B0"/>
</svg>
