<svg width="65" height="65" viewBox="0 0 65 65" fill="none" xmlns="http://www.w3.org/2000/svg">
<circle cx="32.5" cy="32.5" r="32.5" fill="#FF6C99"/>
<path d="M44.5721 31.7706L27.744 21.4773C27.4958 21.3251 27.2114 21.2419 26.9202 21.2363C26.629 21.2308 26.3417 21.3031 26.0878 21.4458C25.8353 21.5844 25.625 21.7887 25.479 22.0371C25.333 22.2854 25.2569 22.5686 25.2586 22.8567V43.4433C25.2569 43.7314 25.333 44.0145 25.479 44.2629C25.625 44.5112 25.8353 44.7155 26.0878 44.8542C26.3417 44.9969 26.629 45.0692 26.9202 45.0637C27.2114 45.0581 27.4958 44.9749 27.744 44.8227L44.5721 34.5294C44.809 34.3854 45.0048 34.1829 45.1407 33.9413C45.2765 33.6997 45.3479 33.4272 45.3479 33.15C45.3479 32.8728 45.2765 32.6003 45.1407 32.3587C45.0048 32.1171 44.809 31.9146 44.5721 31.7706Z" fill="white"/>
</svg>
