<svg width="330" height="194" viewBox="0 0 330 194" fill="none" xmlns="http://www.w3.org/2000/svg">
<path d="M311.859 50.7348L306.254 49.0742C302.041 47.8235 298.415 48.0703 297.402 48.1748C294.161 48.5095 291.141 49.6138 288.627 51.3832C287.117 50.4002 284.736 49.4799 281.332 49.8313C280.236 49.9442 279.165 50.1785 278.144 50.5298L278.236 49.9944L249.006 53.0061L248.784 54.2945L229.48 34.9902L224.431 32.2295L224.222 32.1166H224.218C221.399 30.6442 217.575 30.0293 213.685 30.4308C212.196 30.5814 209.887 31.0415 207.277 32.3508L185.145 34.6347L185.04 37.2616C182.28 35.5842 177.925 34.116 171.463 34.7811C170.555 34.8731 169.656 35.0028 168.769 35.1659L168.811 34.9191L156.128 22.2365L149.787 22.889L150.615 18.1205L132.494 0L111.375 2.16676L111.132 3.55131L88.0089 5.93558L81.4208 44.063C75.6525 44.7323 65.6386 47.2755 58.444 56.5156C58.3519 56.4278 58.2641 56.3399 58.1721 56.2563C57.8793 55.9426 57.5781 55.6414 57.2644 55.3486C56.9716 55.0349 56.6704 54.7337 56.3567 54.4409C56.0095 54.0686 55.6539 53.7089 55.2817 53.37C50.9147 49.4255 44.8912 47.8151 37.3829 48.5931C32.5014 49.0993 23.9724 50.8979 16.0123 54.3112L12.5321 55.8003L0 128.357L18.1205 146.478L28.1721 145.441C28.147 146.198 28.1302 146.963 28.1302 147.737C28.1302 156.709 30.8659 164.004 36.0318 168.886C36.3246 169.195 36.6258 169.497 36.9395 169.794C37.2323 170.103 37.5335 170.404 37.8472 170.701C38.14 171.011 38.4412 171.312 38.7549 171.609C39.0477 171.919 39.3489 172.22 39.6626 172.517C39.9554 172.826 40.2566 173.127 40.5703 173.424C40.8631 173.734 41.1643 174.035 41.478 174.332C41.7708 174.642 42.0719 174.943 42.3857 175.24C42.6785 175.549 42.9796 175.851 43.2934 176.148C43.5862 176.457 43.8873 176.758 44.2011 177.055C44.4939 177.365 44.795 177.666 45.1088 177.963C45.4016 178.272 45.7027 178.574 46.0165 178.871C46.3093 179.18 46.6104 179.481 46.9242 179.778C47.217 180.088 47.5181 180.389 47.8318 180.686C48.1247 180.996 48.4258 181.297 48.7395 181.594C49.0323 181.903 49.3335 182.204 49.6472 182.501C49.94 182.811 50.2412 183.112 50.5549 183.409C50.8477 183.719 51.1489 184.02 51.4626 184.317C51.7554 184.626 52.0566 184.927 52.3703 185.224C52.6631 185.534 52.9643 185.835 53.278 186.132C53.688 186.563 54.1062 186.986 54.5455 187.387C58.9208 191.34 64.8438 193.427 71.662 193.427C72.8751 193.427 74.1341 193.36 75.4058 193.231C83.2404 192.423 90.1088 189.591 96.9604 184.338C97.0106 184.388 97.065 184.438 97.1152 184.488C97.4498 184.848 97.7886 185.191 98.1358 185.505C100.591 187.722 105.159 190.403 112.416 189.675C115.165 189.391 117.758 188.701 120.121 187.621L162.812 183.221L163.385 179.95L166.368 182.853L194.703 179.933L196.008 172.366C196.251 172.621 196.506 172.864 196.761 173.102C197.121 173.487 197.489 173.864 197.874 174.211C200.45 176.537 205.043 179.306 212.326 179.306C213.38 179.306 214.455 179.247 215.526 179.138C219.608 178.72 223.515 177.733 227.158 176.202L227.091 176.603L255.427 173.684L256.422 167.92C256.477 167.97 256.527 168.02 256.581 168.07C256.912 168.426 257.246 168.765 257.602 169.083C259.773 171.044 263.592 173.378 269.452 173.378C270.268 173.378 271.088 173.337 271.878 173.253C274.639 172.968 277.228 172.278 279.583 171.199L301.79 168.911L308.307 122.179L309.366 116.118L292.492 99.2359L314.941 96.9228L326.294 95.7515L330 68.8971L311.88 50.7766L311.859 50.7348ZM115.139 110.668C115.185 110.613 115.231 110.559 115.277 110.505C115.34 110.572 115.411 110.63 115.474 110.697C115.361 110.689 115.248 110.676 115.139 110.668Z" fill="#FF6C99"/>
<g opacity="0.2">
<path d="M72.9009 149.967C68.0152 154.209 64.0205 156.359 60.3312 156.739C54.3705 157.354 51.3504 153.481 51.3504 145.232C51.3504 132.666 56.8175 123.656 64.9575 122.82C69.061 122.397 72.1438 124.188 74.6577 128.45L74.8376 128.755L85.8638 120.774L85.7091 120.498C81.3337 112.676 74.6912 109.167 65.9656 110.062C51.2793 111.576 35.585 122.523 35.585 148.704C35.585 163.147 43.7668 170.924 57.4701 169.514C65.2378 168.715 71.8677 165.544 78.9703 159.232L79.2171 159.015L73.2146 149.691L72.9009 149.963V149.967Z" fill="black"/>
<path d="M108.611 118.206C91.8914 119.929 81.0869 132.901 81.0869 151.255C81.0869 161.478 85.9684 166.837 94.4765 165.958C99.358 165.456 103.236 163.357 106.318 159.546V163.474L118.863 162.181L119.474 152.723L125.104 120.285L125.154 119.996L124.886 119.917C118.637 118.06 112.379 117.817 108.606 118.206H108.611ZM100.45 154.627C97.2623 154.957 95.8401 152.954 95.8401 148.139C95.8401 141.154 98.5758 129.793 105.917 129.036C107.205 128.902 108.422 128.973 109.305 129.224L105.829 149.54C105.005 152.51 103.043 154.363 100.45 154.631V154.627Z" fill="black"/>
<path d="M157.509 127.4L161.771 114.617L161.537 114.492C159.885 113.588 157.233 113.195 154.614 113.467C152.623 113.672 147.75 114.822 143.902 121.001L143.684 115.851L131.734 117.081L131.386 125.568L125.175 161.529L139.941 160.006L144.701 132.901C145.403 129.166 147.976 126.71 151.586 126.338C153.861 126.104 155.865 126.698 157.141 127.237L157.505 127.392L157.509 127.4Z" fill="black"/>
<path d="M157.058 158.249L171.823 156.731L179.516 112.162L164.75 113.684L157.058 158.249Z" fill="black"/>
<path d="M172.952 108.247C178.102 107.715 182.138 103.633 182.138 98.9562C182.138 95.292 179.302 92.9244 175.391 93.326C170.288 93.853 166.289 98.0025 166.289 102.775C166.289 106.515 168.903 108.665 172.952 108.247Z" fill="black"/>
<path d="M210.78 139.029C206.99 141.861 204.43 143.074 201.636 143.362C196.298 143.91 195.177 139.464 195.177 135.636C195.177 126.944 198.954 120.712 204.581 120.134C207.454 119.837 209.127 121.544 210.75 124.2L210.939 124.506L220.923 116.88L220.798 116.617C217.941 110.576 211.997 107.556 204.493 108.33C192.383 109.577 180.169 119.423 180.169 138.61C180.169 150.436 186.523 156.564 197.599 155.422C204.012 154.761 209.868 152.448 214.54 148.733L214.762 148.557L211.16 138.748L210.784 139.029H210.78Z" fill="black"/>
<path d="M233.681 101.993C238.83 101.462 242.867 97.3793 242.867 92.7028C242.867 89.0385 240.031 86.671 236.12 87.0726C231.016 87.5996 227.018 91.7491 227.018 96.5218C227.018 100.261 229.632 102.411 233.681 101.993Z" fill="black"/>
<path d="M217.781 151.996L232.547 150.473L240.244 105.908L225.478 107.427L217.781 151.996Z" fill="black"/>
<path d="M284.361 103.49C278.112 101.633 271.854 101.391 268.081 101.78C251.362 103.503 240.558 116.474 240.558 134.829C240.558 145.052 245.439 150.41 253.947 149.532C258.829 149.03 262.706 146.93 265.789 143.12V147.047L278.334 145.755L278.944 136.297L284.575 103.859L284.625 103.57L284.357 103.49H284.361ZM259.92 138.196C256.733 138.527 255.311 136.523 255.311 131.709C255.311 124.723 258.046 113.362 265.388 112.605C266.676 112.471 267.893 112.542 268.776 112.793L265.3 133.11C264.476 136.08 262.514 137.933 259.92 138.2V138.196Z" fill="black"/>
<path d="M38.9508 56.1056C34.5295 56.5615 26.7827 58.2012 19.496 61.3217L19.2952 61.4095L8.83789 121.907L23.6036 120.385L26.6907 102.549C28.2258 103 30.6059 103.348 33.1491 103.084C47.2121 101.637 56.2975 89.4979 56.2975 72.168C56.2975 60.4893 50.2991 54.9385 38.955 56.1056H38.9508ZM32.6179 68.3867C33.5883 67.9349 35.2155 67.5417 36.8468 67.3744C40.0928 67.0398 41.5401 69.0894 41.5401 74.0211C41.5401 82.0816 39.0554 91.7525 32.0532 92.4762C30.9907 92.5849 29.7651 92.4929 28.5019 92.2043L32.6221 68.3867H32.6179Z" fill="black"/>
<path d="M83.4444 51.5208C75.547 52.3323 61.7894 56.6533 58.3677 76.4344C57.9118 79.0445 57.8574 81.6379 57.8574 83.3613C57.8574 94.2788 63.9352 99.9132 74.5306 98.8214C88.2715 97.4076 97.5075 87.9165 99.8624 72.7785C100.147 70.8209 100.285 68.7252 100.285 66.3744C100.285 51.4037 88.5058 51.0021 83.4444 51.5208ZM84.2726 75.2757C82.8839 83.4241 80.5289 87.2305 76.6304 87.6321C74.129 87.8914 72.8616 85.8753 72.8616 81.6463C72.8616 79.3499 73.1419 76.4511 73.6145 73.8953C74.882 66.7593 77.3959 62.9444 81.0894 62.5638C83.6452 62.3003 84.9419 64.2286 84.9419 68.2902C84.9419 69.8212 84.8248 72.2765 84.2726 75.2757Z" fill="black"/>
<path d="M134.539 32.129L131.945 46.9492C131.008 46.8321 129.507 46.7777 127.855 46.9492C112.198 48.5638 101.678 61.7861 101.678 79.8605C101.678 84.7211 103.058 95.8853 115.824 94.5719C120.401 94.0992 124.19 91.9325 127.097 88.1302L127.261 92.0496L139.625 90.7738L140.232 81.2492L149.054 30.6357L134.539 32.129ZM120.79 83.2571C117.874 83.5582 116.519 81.5128 116.519 76.8153C116.519 68.0312 120.179 58.7911 128.361 57.9503C128.9 57.8959 129.44 57.8959 130.051 57.9001L126.499 78.3421C126.173 80.5005 123.948 82.9308 120.794 83.2571H120.79Z" fill="black"/>
<path d="M179.15 73.4187C175.13 76.1753 171.612 77.6811 168.395 78.0116C166.191 78.2374 164.488 77.815 163.33 76.7483C162.267 75.7737 161.703 74.2762 161.682 72.4064C178.259 69.5453 186.666 62.7648 186.666 52.2572C186.666 45.0291 181.693 41.3983 173.022 42.2893C156.018 44.042 146.845 59.774 146.845 73.6864C146.845 85.0891 153.123 90.7193 164.526 89.5481C173.026 88.6739 179.81 84.813 182.475 82.6714L182.688 82.4999L179.526 73.1594L179.145 73.4187H179.15ZM162.631 63.0952C163.338 60.3721 165.614 53.6878 171.001 53.1315C172.197 53.0102 173.59 53.4787 173.59 55.202C173.59 59.3389 167.341 62.2419 162.631 63.0952Z" fill="black"/>
<path d="M222.163 38.968C220.51 38.0644 217.859 37.6712 215.24 37.9431C213.249 38.1481 208.376 39.2984 204.527 45.4766L204.31 40.3274L192.359 41.5572L192.016 50.0444L185.805 86.005L200.57 84.4825L205.331 57.377C206.033 53.6417 208.606 51.1863 212.216 50.814C214.495 50.5798 216.495 51.1738 217.771 51.7134L218.135 51.8681L222.397 39.0851L222.163 38.9596V38.968Z" fill="black"/>
<path d="M225.735 63.4219L226.756 57.5993L232.144 57.043L228.726 76.6526L228.496 80.2583L223.928 80.7309L223.861 79.1623L223.698 79.1791C222.644 80.6013 221.201 81.5382 219.327 81.7306C215.086 82.1657 213.939 79.0661 213.939 76.1088C213.939 69.5039 217.62 64.0619 224.029 63.4052C224.719 63.3341 225.376 63.3634 225.74 63.4261L225.735 63.4219ZM225.045 67.4041C224.748 67.4041 224.489 67.3957 224.225 67.4208C220.808 67.7722 219.461 71.6247 219.461 74.9459C219.461 76.686 219.955 77.7234 221.268 77.5854C222.615 77.4473 223.502 76.4016 223.636 75.5315L225.049 67.3999L225.045 67.4041Z" fill="black"/>
<path d="M246.872 65.3543C246.872 70.8758 240.627 72.503 237.113 73.0969C237.08 74.5777 237.87 75.7447 239.874 75.5398C241.451 75.3766 242.965 74.5317 244.145 73.7202L245.295 77.1167C244.638 77.6438 242.041 79.3923 238.36 79.7687C233.562 80.2623 231.592 77.5727 231.592 73.6951C231.592 68.1067 235.306 62.238 241.681 61.5813C244.902 61.2509 246.872 62.5267 246.872 65.3501V65.3543ZM240.89 65.5426C238.954 65.7433 237.866 67.9227 237.44 69.7422C239.347 69.4452 242.041 68.2489 242.041 66.4754C242.041 65.7517 241.48 65.4798 240.89 65.5426Z" fill="black"/>
<path d="M271.192 58.3855L268.644 73.3311L268.398 76.7863L263.445 77.2966V75.5648L263.232 75.5523C261.642 77.4513 259.906 78.1248 258.279 78.2921C254.883 78.6435 253.218 77.2924 253.218 74.2137C253.218 73.6825 253.289 72.9672 253.393 72.3189L255.518 60.0001L261.429 59.3894L259.413 70.9887C259.342 71.4907 259.27 71.9591 259.27 72.3482C259.27 73.1638 259.555 73.6992 260.684 73.5821C261.922 73.4566 263.018 72.3147 263.265 70.8381L265.281 58.9921L271.192 58.3813V58.3855Z" fill="black"/>
<path d="M270.535 75.9285L272.903 62.2462L273.099 58.8413L277.634 58.3728L277.701 60.1714C278.981 58.6279 280.691 57.5613 282.892 57.3354C285.619 57.0551 287.263 58.1343 287.296 60.9578C287.296 61.4849 287.229 62.1458 287.133 62.7816L285.096 74.4269L279.608 74.9916L281.319 64.9902C281.419 64.4547 281.582 63.6809 281.582 63.0577C281.582 62.4009 281.319 61.7066 280.332 61.807C278.918 61.9534 278.098 63.0911 277.868 64.4924L275.994 75.3638L270.539 75.9244L270.535 75.9285Z" fill="black"/>
<path d="M303.069 69.027L302.839 72.5992L298.204 73.076V71.5325L298.041 71.5158C296.89 72.9798 295.41 73.8583 293.44 74.059C289.922 74.4229 288.345 71.9885 288.345 68.4372C288.345 61.6985 292.093 56.3861 298.961 55.6792C300.341 55.537 302.805 55.6123 305.269 56.3443L303.069 69.027ZM299.388 59.745C299.024 59.6154 298.501 59.5735 297.907 59.6363C294.916 59.9458 293.833 64.5596 293.833 67.2534C293.833 68.8304 294.192 70.0769 295.769 69.9137C296.886 69.7966 297.677 68.9935 298.003 67.8097L299.383 59.7492L299.388 59.745Z" fill="black"/>
<path d="M94.5209 12.9342L114.172 10.9097L112.951 17.8115L101.113 19.0329L100.302 23.7262L110.466 22.6804L109.291 29.4861L99.1263 30.5318L98.1768 35.8232L110.374 34.5683L109.199 41.466L89.2295 43.524L94.5125 12.9384L94.5209 12.9342Z" fill="black"/>
<path d="M121.174 33.5431C121.174 33.1332 121.216 32.5894 121.308 32.0372L125.42 8.39111L117.878 9.16496L113.766 32.8111C113.582 33.9614 113.448 35.0615 113.448 36.0529C113.49 39.5289 114.896 41.5952 119.685 41.1058C120.932 40.9762 122.504 40.5913 123.939 40.035L124.968 34.1413C124.085 34.5512 123.316 34.8147 122.755 34.8733C121.714 34.9778 121.216 34.6223 121.174 33.5473V33.5431Z" fill="black"/>
</g>
<path d="M72.0132 148.991C67.1276 153.233 63.1328 155.383 59.4435 155.764C53.4828 156.378 50.4627 152.505 50.4627 144.256C50.4627 131.691 55.9298 122.681 64.0698 121.844C68.1733 121.422 71.2561 123.212 73.7701 127.474L73.9499 127.78L84.9761 119.799L84.8214 119.523C80.446 111.701 73.8035 108.191 65.0779 109.086C50.3916 110.6 34.6973 121.547 34.6973 147.728C34.6973 162.172 42.8791 169.948 56.5824 168.538C64.3501 167.739 70.98 164.569 78.0827 158.257L78.3294 158.039L72.3269 148.715L72.0132 148.987V148.991Z" fill="white"/>
<path d="M107.722 117.23C91.0028 118.954 80.1982 131.925 80.1982 150.28C80.1982 160.503 85.0797 165.861 93.5878 164.983C98.4693 164.481 102.347 162.381 105.43 158.57V162.498L117.974 161.206L118.585 151.748L124.215 119.309L124.265 119.021L123.998 118.941C117.748 117.084 111.491 116.841 107.718 117.23H107.722ZM99.561 153.651C96.3736 153.982 94.9514 151.978 94.9514 147.163C94.9514 140.178 97.6871 128.817 105.028 128.06C106.316 127.926 107.534 127.997 108.416 128.248L104.94 148.565C104.116 151.535 102.154 153.388 99.561 153.655V153.651Z" fill="white"/>
<path d="M156.62 126.424L160.883 113.641L160.648 113.516C158.996 112.612 156.344 112.219 153.726 112.491C151.735 112.696 146.861 113.846 143.013 120.024L142.796 114.875L130.845 116.105L130.498 124.592L124.286 160.553L139.052 159.03L143.812 131.925C144.515 128.19 147.087 125.734 150.697 125.362C152.973 125.128 154.976 125.722 156.252 126.261L156.616 126.416L156.62 126.424Z" fill="white"/>
<path d="M156.17 157.274L170.936 155.755L178.628 111.186L163.862 112.709L156.17 157.274Z" fill="white"/>
<path d="M172.064 107.271C177.213 106.74 181.25 102.657 181.25 97.9806C181.25 94.3164 178.413 91.9488 174.502 92.3504C169.399 92.8775 165.4 97.0269 165.4 101.8C165.4 105.539 168.015 107.689 172.064 107.271Z" fill="white"/>
<path d="M209.892 138.049C206.102 140.881 203.542 142.094 200.748 142.383C195.411 142.931 194.29 138.484 194.29 134.657C194.29 125.965 198.067 119.732 203.693 119.155C206.567 118.858 208.24 120.565 209.863 123.221L210.051 123.526L220.036 115.901L219.91 115.637C217.053 109.597 211.109 106.577 203.605 107.351C191.495 108.597 179.281 118.444 179.281 137.631C179.281 149.456 185.635 155.584 196.712 154.442C203.124 153.781 208.98 151.468 213.652 147.754L213.874 147.578L210.273 137.769L209.896 138.049H209.892Z" fill="white"/>
<path d="M232.792 101.018C237.942 100.486 241.978 96.4037 241.978 91.7272C241.978 88.063 239.142 85.6954 235.231 86.097C230.128 86.624 226.129 90.7735 226.129 95.5462C226.129 99.2858 228.743 101.436 232.792 101.018Z" fill="white"/>
<path d="M216.893 151.02L231.658 149.498L239.355 104.933L224.589 106.451L216.893 151.02Z" fill="white"/>
<path d="M283.472 102.515C277.222 100.658 270.965 100.415 267.192 100.804C250.473 102.527 239.668 115.499 239.668 133.853C239.668 144.077 244.549 149.435 253.058 148.556C257.939 148.054 261.817 145.955 264.899 142.144V146.072L277.444 144.779L278.055 135.322L283.685 102.883L283.735 102.594L283.467 102.515H283.472ZM259.031 137.221C255.843 137.551 254.421 135.548 254.421 130.733C254.421 123.747 257.157 112.387 264.498 111.63C265.786 111.496 267.003 111.567 267.886 111.818L264.41 132.134C263.586 135.104 261.624 136.957 259.031 137.225V137.221Z" fill="white"/>
<path d="M38.0641 55.131C33.6427 55.5869 25.896 57.2266 18.6093 60.3471L18.4085 60.4349L7.95117 120.933L22.7169 119.41L25.8039 101.574C27.3391 102.026 29.7192 102.373 32.2624 102.109C46.3254 100.662 55.4107 88.5233 55.4107 71.1934C55.4107 59.5147 49.4124 53.9639 38.0683 55.131H38.0641ZM31.7311 67.4121C32.7016 66.9603 34.3288 66.5671 35.9601 66.3998C39.2061 66.0652 40.6533 68.1148 40.6533 73.0465C40.6533 81.107 38.1687 90.7779 31.1665 91.5016C30.104 91.6103 28.8784 91.5183 27.6151 91.2297L31.7353 67.4121H31.7311Z" fill="white"/>
<path d="M82.5587 50.5467C74.6613 51.3582 60.9036 55.6792 57.482 75.4603C57.0261 78.0704 56.9717 80.6638 56.9717 82.3872C56.9717 93.3047 63.0495 98.9391 73.6449 97.8473C87.3858 96.4335 96.6217 86.9424 98.9767 71.8044C99.2611 69.8468 99.3992 67.7511 99.3992 65.4003C99.3992 50.4296 87.62 50.028 82.5587 50.5467ZM83.3869 74.3016C81.9982 82.4499 79.6432 86.2564 75.7447 86.658C73.2433 86.9173 71.9759 84.9011 71.9759 80.6722C71.9759 78.3758 72.2561 75.477 72.7288 72.9212C73.9962 65.7851 76.5102 61.9703 80.2037 61.5897C82.7595 61.3261 84.0562 63.2545 84.0562 67.3161C84.0562 68.847 83.9391 71.3024 83.3869 74.3016Z" fill="white"/>
<path d="M133.653 31.1505L131.06 45.9707C130.123 45.8535 128.621 45.7992 126.969 45.9707C111.312 47.5853 100.792 60.8075 100.792 78.882C100.792 83.7426 102.172 94.9068 114.939 93.5934C119.515 93.1207 123.305 90.9539 126.212 87.1517L126.375 91.0711L138.74 89.7953L139.346 80.2707L148.168 29.6572L133.653 31.1505ZM119.904 82.2785C116.988 82.5797 115.633 80.5343 115.633 75.8368C115.633 67.0527 119.293 57.8126 127.475 56.9718C128.015 56.9174 128.554 56.9174 129.165 56.9216L125.614 77.3636C125.287 79.522 123.062 81.9523 119.908 82.2785H119.904Z" fill="white"/>
<path d="M178.263 72.4446C174.243 75.2011 170.725 76.707 167.508 77.0374C165.304 77.2633 163.602 76.8408 162.443 75.7742C161.38 74.7996 160.816 73.3021 160.795 71.4323C177.372 68.5712 185.78 61.7906 185.78 51.2831C185.78 44.055 180.806 40.4242 172.135 41.3152C155.131 43.0678 145.958 58.7999 145.958 72.7123C145.958 84.115 152.237 89.7452 163.639 88.574C172.139 87.6997 178.924 83.8389 181.588 81.6972L181.802 81.5257L178.639 72.1852L178.259 72.4446H178.263ZM161.744 62.1211C162.451 59.398 164.727 52.7137 170.114 52.1574C171.311 52.036 172.704 52.5045 172.704 54.2279C172.704 58.3648 166.454 61.2678 161.744 62.1211Z" fill="white"/>
<path d="M221.277 37.9938C219.625 37.0903 216.973 36.6971 214.354 36.969C212.363 37.174 207.49 38.3243 203.642 44.5025L203.424 39.3533L191.474 40.5831L191.131 49.0702L184.919 85.0309L199.685 83.5083L204.445 56.4029C205.148 52.6676 207.72 50.2122 211.33 49.8399C213.61 49.6057 215.609 50.1996 216.885 50.7392L217.249 50.894L221.511 38.111L221.277 37.9855V37.9938Z" fill="white"/>
<path d="M224.853 62.4473L225.874 56.6247L231.262 56.0684L227.844 75.678L227.614 79.2836L223.046 79.7563L222.98 78.1877L222.816 78.2045C221.762 79.6266 220.319 80.5636 218.445 80.756C214.204 81.1911 213.058 78.0915 213.058 75.1342C213.058 68.5293 216.739 63.0873 223.147 62.4306C223.837 62.3595 224.494 62.3888 224.858 62.4515L224.853 62.4473ZM224.163 66.4295C223.866 66.4295 223.607 66.4211 223.343 66.4462C219.926 66.7976 218.579 70.6501 218.579 73.9713C218.579 75.7114 219.073 76.7488 220.386 76.6107C221.7 76.4727 222.62 75.427 222.754 74.5569L224.167 66.4253L224.163 66.4295Z" fill="#FFF0B0"/>
<path d="M245.986 64.3797C245.986 69.9012 239.741 71.5284 236.228 72.1223C236.194 73.6031 236.985 74.7701 238.988 74.5652C240.565 74.402 242.079 73.5571 243.259 72.7456L244.409 76.1421C243.753 76.6692 241.155 78.4176 237.474 78.7941C232.676 79.2877 230.706 76.5981 230.706 72.7205C230.706 67.1321 234.42 61.2634 240.795 60.6067C244.016 60.2763 245.986 61.5521 245.986 64.3755V64.3797ZM240.005 64.568C238.068 64.7687 236.98 66.948 236.554 68.7676C238.461 68.4706 241.155 67.2743 241.155 65.5007C241.155 64.7771 240.595 64.5052 240.005 64.568Z" fill="#FFF0B0"/>
<path d="M270.304 57.4109L267.757 72.3565L267.51 75.8116L262.557 76.322V74.5902L262.344 74.5777C260.755 76.4767 259.019 77.1502 257.391 77.3175C253.995 77.6689 252.33 76.3178 252.33 73.2391C252.33 72.7079 252.401 71.9926 252.506 71.3443L254.631 59.0255L260.541 58.4148L258.525 70.0141C258.454 70.5161 258.383 70.9845 258.383 71.3736C258.383 72.1892 258.667 72.7246 259.797 72.6075C261.035 72.482 262.131 71.3401 262.377 69.8635L264.394 58.0174L270.304 57.4067V57.4109Z" fill="#FFF0B0"/>
<path d="M269.648 74.9539L272.016 61.2716L272.213 57.8666L276.747 57.3982L276.814 59.1968C278.094 57.6533 279.805 56.5867 282.005 56.3608C284.732 56.0805 286.376 57.1597 286.409 59.9832C286.409 60.5103 286.343 61.1712 286.246 61.807L284.209 73.4523L278.721 74.017L280.432 64.0156C280.532 63.4801 280.696 62.7063 280.696 62.083C280.696 61.4263 280.432 60.732 279.445 60.8323C278.031 60.9787 277.211 62.1165 276.981 63.5178L275.107 74.3892L269.653 74.9497L269.648 74.9539Z" fill="#FFF0B0"/>
<path d="M302.183 68.0524L301.953 71.6246L297.318 72.1014V70.5579L297.155 70.5412C296.005 72.0052 294.524 72.8836 292.554 73.0844C289.036 73.4483 287.459 71.0139 287.459 67.4626C287.459 60.7239 291.207 55.4115 298.075 54.7046C299.456 54.5624 301.919 54.6377 304.383 55.3697L302.183 68.0524ZM298.502 58.7704C298.138 58.6408 297.615 58.5989 297.021 58.6617C294.03 58.9712 292.947 63.585 292.947 66.2788C292.947 67.8558 293.307 69.1023 294.884 68.9391C296.001 68.822 296.791 68.0189 297.117 66.8351L298.498 58.7746L298.502 58.7704Z" fill="#FFF0B0"/>
<path d="M93.6352 11.9591L113.287 9.93457L112.065 16.8364L100.227 18.0578L99.416 22.7511L109.581 21.7053L108.405 28.511L98.2406 29.5567L97.291 34.8481L109.488 33.5932L108.313 40.4909L88.3438 42.5489L93.6268 11.9633L93.6352 11.9591Z" fill="#FFF0B0"/>
<path d="M120.288 32.5685C120.288 32.1586 120.33 31.6148 120.422 31.0626L124.534 7.4165L116.992 8.19035L112.88 31.8365C112.696 32.9868 112.562 34.0869 112.562 35.0782C112.604 38.5543 114.01 40.6206 118.799 40.1312C120.046 40.0016 121.619 39.6167 123.053 39.0604L124.082 33.1666C123.2 33.5766 122.43 33.8401 121.87 33.8987C120.828 34.0032 120.33 33.6477 120.288 32.5727V32.5685Z" fill="#FFF0B0"/>
</svg>
